<svg xmlns="http://www.w3.org/2000/svg"  viewBox="0 0 50 50" width="100px" height="100px"><path d="M32.246,22.112c-2.048,0-2.783,2.66-2.783,5.763c0,3.264,0.801,6.389,2.593,6.389c0.768,0,1.761-0.4,2.305-2.639 c0.096-0.288,0.125-0.875,0.125-0.875v-4.563c0-0.319,0.032-0.711,0-1.062C34.358,23.525,33.43,22.112,32.246,22.112z M44,4H6 C4.897,4,4,4.897,4,6v38c0,1.103,0.897,2,2,2h38c1.103,0,2-0.897,2-2V6C46,4.897,45.103,4,44,4z M26.5,36H24l-4.243-8.127 L15.5,36h-2.464l5.482-10.5L13.036,15H15.5l4.257,8.127L24,15h2.5L21,25.5L26.5,36z M37,32.625c0,1.056-0.032,2.479,0,3.375h-2.5 v-1.625c-0.48,1.088-1.388,1.937-3.019,1.937c-2.624,0-4.481-3.316-4.481-8.437C27,22.372,29.303,20,31.703,20 c1.12,0,2.19,0.564,2.797,1.875v-0.007V14H37V32.625z"/></svg>