<svg xmlns="http://www.w3.org/2000/svg" xmlns:xlink="http://www.w3.org/1999/xlink" width="500" zoomAndPan="magnify" viewBox="0 0 375 374.999991" height="500" preserveAspectRatio="xMidYMid meet" version="1.0"><metadata><ContainsAiGeneratedContent>Yes</ContainsAiGeneratedContent></metadata><defs><g/></defs><g fill="#ffffff" fill-opacity="1"><g transform="translate(68.161186, 286.27201)"><g><path d="M 5.640625 -188.234375 L 35.953125 -188.234375 L 108.234375 -36.515625 L 164.703125 -188.234375 L 197.828125 -188.234375 L 197.828125 -186.359375 C 192.429688 -186.359375 188.507812 -184.722656 186.0625 -181.453125 C 183.625 -178.191406 182.085938 -172.890625 181.453125 -165.546875 C 180.828125 -158.210938 180.515625 -148.332031 180.515625 -135.90625 L 180.515625 -52.328125 C 180.515625 -40.023438 180.828125 -30.171875 181.453125 -22.765625 C 182.085938 -15.367188 183.625 -10.035156 186.0625 -6.765625 C 188.507812 -3.503906 192.429688 -1.875 197.828125 -1.875 L 197.828125 0 L 147.015625 0 L 147.015625 -1.875 C 152.410156 -1.875 156.332031 -3.503906 158.78125 -6.765625 C 161.226562 -10.035156 162.765625 -15.367188 163.390625 -22.765625 C 164.015625 -30.171875 164.328125 -40.023438 164.328125 -52.328125 L 164.328125 -182.015625 C 157.546875 -163.953125 150.832031 -145.945312 144.1875 -128 C 137.539062 -110.050781 130.765625 -91.695312 123.859375 -72.9375 C 116.953125 -54.175781 109.609375 -34.441406 101.828125 -13.734375 L 100.140625 -13.734375 C 94.242188 -26.410156 88.753906 -38.175781 83.671875 -49.03125 C 78.585938 -59.882812 73.753906 -70.269531 69.171875 -80.1875 C 64.597656 -90.101562 59.988281 -99.984375 55.34375 -109.828125 C 50.695312 -119.679688 45.925781 -129.910156 41.03125 -140.515625 C 36.132812 -151.117188 30.800781 -162.570312 25.03125 -174.875 L 24.84375 -94.109375 L 24.84375 -70.21875 C 24.84375 -56.53125 25.722656 -45.234375 27.484375 -36.328125 C 29.242188 -27.421875 31.628906 -20.457031 34.640625 -15.4375 C 37.648438 -10.414062 41.035156 -6.898438 44.796875 -4.890625 C 48.566406 -2.878906 52.457031 -1.875 56.46875 -1.875 L 56.46875 0 L 5.640625 0 L 5.640625 -1.875 C 11.035156 -1.875 14.957031 -3.503906 17.40625 -6.765625 C 19.851562 -10.035156 21.390625 -15.367188 22.015625 -22.765625 C 22.648438 -30.171875 22.96875 -40.023438 22.96875 -52.328125 L 22.96875 -135.90625 C 22.96875 -148.332031 22.648438 -158.210938 22.015625 -165.546875 C 21.390625 -172.890625 19.851562 -178.191406 17.40625 -181.453125 C 14.957031 -184.722656 11.035156 -186.359375 5.640625 -186.359375 Z M 5.640625 -188.234375 "/></g></g></g><g fill="#ffffff" fill-opacity="1"><g transform="translate(160.657537, 286.27201)"><g><path d="M 0 -186.359375 L 0 -188.234375 L 52.328125 -188.234375 L 52.328125 -186.359375 L 48.1875 -186.359375 C 45.550781 -186.359375 43.195312 -185.632812 41.125 -184.1875 C 39.050781 -182.738281 38.015625 -180.132812 38.015625 -176.375 C 38.015625 -174.238281 38.863281 -171.003906 40.5625 -166.671875 C 42.257812 -162.347656 44.550781 -157.363281 47.4375 -151.71875 C 50.320312 -146.070312 53.488281 -140.078125 56.9375 -133.734375 C 60.394531 -127.398438 63.847656 -121.125 67.296875 -114.90625 C 70.742188 -108.695312 74.003906 -102.863281 77.078125 -97.40625 C 80.148438 -91.945312 82.628906 -87.335938 84.515625 -83.578125 C 87.148438 -88.472656 90.347656 -94.429688 94.109375 -101.453125 C 97.878906 -108.484375 101.769531 -115.890625 105.78125 -123.671875 C 109.800781 -131.453125 113.597656 -138.976562 117.171875 -146.25 C 120.753906 -153.53125 123.640625 -159.960938 125.828125 -165.546875 C 128.023438 -171.128906 129.125 -175.175781 129.125 -177.6875 C 129.125 -181.082031 128.023438 -183.375 125.828125 -184.5625 C 123.640625 -185.757812 121.226562 -186.359375 118.59375 -186.359375 L 113.6875 -186.359375 L 113.6875 -188.234375 L 153.96875 -188.234375 L 153.96875 -186.359375 C 149.207031 -186.359375 145.222656 -184.722656 142.015625 -181.453125 C 138.816406 -178.191406 135.460938 -173.109375 131.953125 -166.203125 C 128.441406 -159.304688 123.796875 -150.398438 118.015625 -139.484375 C 114.128906 -132.203125 110.050781 -124.734375 105.78125 -117.078125 C 101.519531 -109.421875 97.535156 -102.296875 93.828125 -95.703125 C 90.128906 -89.117188 87.210938 -83.757812 85.078125 -79.625 L 85.078125 -52.328125 C 85.078125 -40.023438 85.390625 -30.171875 86.015625 -22.765625 C 86.648438 -15.367188 88.191406 -10.035156 90.640625 -6.765625 C 93.085938 -3.503906 97.007812 -1.875 102.40625 -1.875 L 102.40625 0 L 51.578125 0 L 51.578125 -1.875 C 56.972656 -1.875 60.894531 -3.503906 63.34375 -6.765625 C 65.789062 -10.035156 67.328125 -15.367188 67.953125 -22.765625 C 68.578125 -30.171875 68.890625 -40.023438 68.890625 -52.328125 L 68.890625 -79.625 C 66.753906 -83.757812 63.835938 -89.117188 60.140625 -95.703125 C 56.441406 -102.296875 52.457031 -109.421875 48.1875 -117.078125 C 43.914062 -124.734375 39.835938 -132.203125 35.953125 -139.484375 C 30.304688 -150.398438 25.691406 -159.304688 22.109375 -166.203125 C 18.535156 -173.109375 15.148438 -178.191406 11.953125 -181.453125 C 8.753906 -184.722656 4.769531 -186.359375 0 -186.359375 Z M 0 -186.359375 "/></g></g></g></svg>