<svg xmlns="http://www.w3.org/2000/svg" xmlns:xlink="http://www.w3.org/1999/xlink" width="100" zoomAndPan="magnify" viewBox="0 0 75 74.999997" height="100" preserveAspectRatio="xMidYMid meet" version="1.0"><defs><g/></defs><g fill="#000000" fill-opacity="1"><g transform="translate(37.619165, 68.321689)"><g><path d="M -1.828125 -0.375 L -0.515625 -0.109375 C -0.492188 -0.0976562 -0.488281 -0.0664062 -0.5 -0.015625 C -0.507812 0.0351562 -0.519531 0.0859375 -0.53125 0.140625 C -0.539062 0.191406 -0.554688 0.210938 -0.578125 0.203125 C -0.910156 0.140625 -1.164062 0.117188 -1.34375 0.140625 C -1.53125 0.160156 -1.679688 0.253906 -1.796875 0.421875 C -1.910156 0.597656 -2.003906 0.867188 -2.078125 1.234375 C -2.171875 1.691406 -2.269531 2.195312 -2.375 2.75 C -2.476562 3.300781 -2.585938 3.851562 -2.703125 4.40625 C -2.816406 4.957031 -2.921875 5.457031 -3.015625 5.90625 C -3.085938 6.269531 -3.109375 6.535156 -3.078125 6.703125 C -3.054688 6.867188 -2.96875 6.984375 -2.8125 7.046875 C -2.664062 7.117188 -2.429688 7.1875 -2.109375 7.25 C -2.085938 7.25 -2.078125 7.28125 -2.078125 7.34375 C -2.085938 7.40625 -2.101562 7.460938 -2.125 7.515625 C -2.144531 7.578125 -2.164062 7.609375 -2.1875 7.609375 L -3.421875 7.359375 L -4.234375 7.1875 L -6.515625 2.015625 L -10.703125 5.875 L -11.28125 5.765625 L -12.4375 5.53125 C -12.457031 5.519531 -12.460938 5.484375 -12.453125 5.421875 C -12.453125 5.367188 -12.441406 5.3125 -12.421875 5.25 C -12.398438 5.1875 -12.378906 5.160156 -12.359375 5.171875 C -12.054688 5.234375 -11.828125 5.265625 -11.671875 5.265625 C -11.515625 5.265625 -11.394531 5.195312 -11.3125 5.0625 C -11.226562 4.925781 -11.148438 4.679688 -11.078125 4.328125 L -10.078125 -0.59375 C -10.015625 -0.9375 -9.992188 -1.1875 -10.015625 -1.34375 C -10.035156 -1.507812 -10.117188 -1.617188 -10.265625 -1.671875 C -10.410156 -1.734375 -10.632812 -1.789062 -10.9375 -1.84375 C -10.957031 -1.851562 -10.960938 -1.882812 -10.953125 -1.9375 C -10.941406 -2 -10.925781 -2.054688 -10.90625 -2.109375 C -10.894531 -2.171875 -10.878906 -2.195312 -10.859375 -2.1875 L -9.703125 -1.953125 L -8.921875 -1.8125 C -8.828125 -1.789062 -8.738281 -1.769531 -8.65625 -1.75 C -8.570312 -1.738281 -8.460938 -1.71875 -8.328125 -1.6875 C -8.191406 -1.664062 -8.007812 -1.632812 -7.78125 -1.59375 C -7.757812 -1.59375 -7.75 -1.5625 -7.75 -1.5 C -7.757812 -1.4375 -7.769531 -1.375 -7.78125 -1.3125 C -7.789062 -1.257812 -7.804688 -1.234375 -7.828125 -1.234375 C -8.128906 -1.296875 -8.363281 -1.328125 -8.53125 -1.328125 C -8.695312 -1.335938 -8.816406 -1.269531 -8.890625 -1.125 C -8.972656 -0.976562 -9.046875 -0.734375 -9.109375 -0.390625 L -10.171875 4.796875 L -6.6875 1.625 C -6.582031 1.519531 -6.472656 1.414062 -6.359375 1.3125 C -6.242188 1.207031 -6.132812 1.09375 -6.03125 0.96875 C -5.976562 0.945312 -5.941406 0.960938 -5.921875 1.015625 L -3.53125 6.359375 L -2.5 1.328125 C -2.414062 0.910156 -2.394531 0.59375 -2.4375 0.375 C -2.476562 0.15625 -2.59375 -0.00390625 -2.78125 -0.109375 C -2.96875 -0.210938 -3.25 -0.300781 -3.625 -0.375 C -3.632812 -0.382812 -3.632812 -0.414062 -3.625 -0.46875 C -3.625 -0.519531 -3.613281 -0.578125 -3.59375 -0.640625 C -3.582031 -0.703125 -3.570312 -0.726562 -3.5625 -0.71875 L -2.03125 -0.421875 Z M -1.828125 -0.375 "/></g></g></g><g fill="#000000" fill-opacity="1"><g transform="translate(26.75837, 65.814189)"><g><path d="M -1.890625 -1.15625 C -1.460938 -0.925781 -1.179688 -0.625 -1.046875 -0.25 C -0.921875 0.113281 -0.957031 0.484375 -1.15625 0.859375 C -1.332031 1.160156 -1.601562 1.375 -1.96875 1.5 C -2.34375 1.632812 -2.835938 1.660156 -3.453125 1.578125 C -4.078125 1.503906 -4.863281 1.300781 -5.8125 0.96875 L -6.078125 1.46875 C -6.347656 1.957031 -6.425781 2.363281 -6.3125 2.6875 C -6.195312 3.007812 -5.976562 3.257812 -5.65625 3.4375 C -5.476562 3.539062 -5.238281 3.609375 -4.9375 3.640625 C -4.632812 3.671875 -4.359375 3.648438 -4.109375 3.578125 C -4.023438 3.210938 -3.878906 2.960938 -3.671875 2.828125 C -3.460938 2.703125 -3.269531 2.691406 -3.09375 2.796875 C -2.988281 2.847656 -2.914062 2.941406 -2.875 3.078125 C -2.84375 3.210938 -2.863281 3.351562 -2.9375 3.5 C -3.007812 3.644531 -3.160156 3.757812 -3.390625 3.84375 C -3.617188 3.9375 -3.882812 3.988281 -4.1875 4 C -4.488281 4.019531 -4.796875 4.003906 -5.109375 3.953125 C -5.421875 3.898438 -5.703125 3.804688 -5.953125 3.671875 C -6.253906 3.492188 -6.519531 3.289062 -6.75 3.0625 C -6.976562 2.832031 -7.113281 2.546875 -7.15625 2.203125 C -7.195312 1.859375 -7.082031 1.441406 -6.8125 0.953125 L -5.203125 -1.96875 C -5.128906 -2.101562 -5.085938 -2.226562 -5.078125 -2.34375 C -5.078125 -2.46875 -5.132812 -2.5625 -5.25 -2.625 C -5.332031 -2.664062 -5.429688 -2.671875 -5.546875 -2.640625 C -5.671875 -2.609375 -5.816406 -2.554688 -5.984375 -2.484375 C -6.003906 -2.460938 -6.023438 -2.484375 -6.046875 -2.546875 C -6.078125 -2.609375 -6.078125 -2.644531 -6.046875 -2.65625 C -5.828125 -2.75 -5.609375 -2.816406 -5.390625 -2.859375 C -5.171875 -2.898438 -4.957031 -2.863281 -4.75 -2.75 C -4.53125 -2.632812 -4.394531 -2.492188 -4.34375 -2.328125 C -4.289062 -2.171875 -4.285156 -2.015625 -4.328125 -1.859375 C -4.367188 -1.710938 -4.414062 -1.597656 -4.46875 -1.515625 L -4.859375 -0.796875 L -4.84375 -0.796875 C -4.6875 -0.898438 -4.492188 -1.003906 -4.265625 -1.109375 C -4.046875 -1.210938 -3.800781 -1.296875 -3.53125 -1.359375 C -3.257812 -1.421875 -2.984375 -1.4375 -2.703125 -1.40625 C -2.421875 -1.382812 -2.148438 -1.300781 -1.890625 -1.15625 Z M -2.53125 -0.84375 C -2.8125 -0.988281 -3.097656 -1.050781 -3.390625 -1.03125 C -3.691406 -1.019531 -3.988281 -0.945312 -4.28125 -0.8125 C -4.582031 -0.6875 -4.847656 -0.53125 -5.078125 -0.34375 L -5.625 0.640625 C -5 0.867188 -4.472656 1.019531 -4.046875 1.09375 C -3.628906 1.175781 -3.28125 1.207031 -3 1.1875 C -2.726562 1.175781 -2.519531 1.125 -2.375 1.03125 C -2.226562 0.9375 -2.117188 0.820312 -2.046875 0.6875 C -1.890625 0.394531 -1.863281 0.109375 -1.96875 -0.171875 C -2.070312 -0.460938 -2.257812 -0.6875 -2.53125 -0.84375 Z M -2.53125 -0.84375 "/></g></g></g><g fill="#000000" fill-opacity="1"><g transform="translate(21.061238, 62.790228)"><g><path d="M -1 -0.921875 L -0.3125 -0.28125 C -0.300781 -0.28125 -0.3125 -0.253906 -0.34375 -0.203125 C -0.375 -0.160156 -0.410156 -0.117188 -0.453125 -0.078125 C -0.503906 -0.046875 -0.535156 -0.03125 -0.546875 -0.03125 C -0.765625 -0.226562 -0.929688 -0.351562 -1.046875 -0.40625 C -1.160156 -0.457031 -1.269531 -0.441406 -1.375 -0.359375 C -1.488281 -0.285156 -1.628906 -0.160156 -1.796875 0.015625 L -3.890625 2.3125 C -4.066406 2.507812 -4.195312 2.671875 -4.28125 2.796875 C -4.363281 2.921875 -4.398438 3.046875 -4.390625 3.171875 C -4.378906 3.304688 -4.304688 3.476562 -4.171875 3.6875 C -4.160156 3.707031 -4.1875 3.75 -4.25 3.8125 C -4.3125 3.882812 -4.347656 3.914062 -4.359375 3.90625 C -4.472656 3.832031 -4.5625 3.773438 -4.625 3.734375 C -4.6875 3.691406 -4.75 3.644531 -4.8125 3.59375 C -4.875 3.550781 -4.960938 3.492188 -5.078125 3.421875 C -5.203125 3.359375 -5.363281 3.265625 -5.5625 3.140625 C -5.601562 3.097656 -5.628906 3.054688 -5.640625 3.015625 C -5.648438 2.984375 -5.644531 2.953125 -5.625 2.921875 L -4.90625 2.234375 L -4.953125 2.1875 C -5.421875 2.15625 -5.878906 2.085938 -6.328125 1.984375 C -6.773438 1.878906 -7.175781 1.664062 -7.53125 1.34375 C -7.96875 0.945312 -8.164062 0.515625 -8.125 0.046875 C -8.09375 -0.410156 -7.796875 -0.945312 -7.234375 -1.5625 L -5.5625 -3.40625 C -5.394531 -3.582031 -5.273438 -3.726562 -5.203125 -3.84375 C -5.140625 -3.96875 -5.140625 -4.085938 -5.203125 -4.203125 C -5.265625 -4.316406 -5.398438 -4.46875 -5.609375 -4.65625 C -5.617188 -4.664062 -5.601562 -4.691406 -5.5625 -4.734375 C -5.53125 -4.773438 -5.492188 -4.816406 -5.453125 -4.859375 C -5.410156 -4.898438 -5.382812 -4.914062 -5.375 -4.90625 L -4.6875 -4.28125 L -4.109375 -3.75 L -3.453125 -3.15625 C -3.441406 -3.144531 -3.453125 -3.113281 -3.484375 -3.0625 C -3.515625 -3.019531 -3.550781 -2.976562 -3.59375 -2.9375 C -3.644531 -2.90625 -3.675781 -2.894531 -3.6875 -2.90625 C -3.882812 -3.082031 -4.039062 -3.195312 -4.15625 -3.25 C -4.269531 -3.300781 -4.378906 -3.285156 -4.484375 -3.203125 C -4.597656 -3.117188 -4.738281 -2.988281 -4.90625 -2.8125 L -6.46875 -1.09375 C -6.945312 -0.5625 -7.1875 -0.113281 -7.1875 0.25 C -7.195312 0.613281 -7.050781 0.9375 -6.75 1.21875 C -6.476562 1.457031 -6.148438 1.625 -5.765625 1.71875 C -5.378906 1.820312 -5.019531 1.875 -4.6875 1.875 L -2.453125 -0.578125 C -2.285156 -0.753906 -2.164062 -0.898438 -2.09375 -1.015625 C -2.03125 -1.128906 -2.023438 -1.238281 -2.078125 -1.34375 C -2.140625 -1.457031 -2.269531 -1.609375 -2.46875 -1.796875 C -2.476562 -1.796875 -2.460938 -1.816406 -2.421875 -1.859375 C -2.390625 -1.910156 -2.351562 -1.953125 -2.3125 -1.984375 C -2.269531 -2.023438 -2.242188 -2.046875 -2.234375 -2.046875 L -1.578125 -1.4375 Z M -1 -0.921875 "/></g></g></g><g fill="#000000" fill-opacity="1"><g transform="translate(15.682574, 57.873636)"><g><path d="M -1.140625 -1.890625 C -0.867188 -1.492188 -0.757812 -1.097656 -0.8125 -0.703125 C -0.875 -0.316406 -1.082031 -0.00390625 -1.4375 0.234375 C -1.726562 0.429688 -2.066406 0.5 -2.453125 0.4375 C -2.835938 0.382812 -3.289062 0.179688 -3.8125 -0.171875 C -4.332031 -0.523438 -4.9375 -1.0625 -5.625 -1.78125 L -6.09375 -1.46875 C -6.550781 -1.15625 -6.800781 -0.828125 -6.84375 -0.484375 C -6.882812 -0.140625 -6.800781 0.179688 -6.59375 0.484375 C -6.488281 0.648438 -6.304688 0.816406 -6.046875 0.984375 C -5.796875 1.148438 -5.546875 1.265625 -5.296875 1.328125 C -5.054688 1.023438 -4.8125 0.863281 -4.5625 0.84375 C -4.320312 0.820312 -4.144531 0.894531 -4.03125 1.0625 C -3.96875 1.164062 -3.945312 1.285156 -3.96875 1.421875 C -4 1.566406 -4.078125 1.679688 -4.203125 1.765625 C -4.335938 1.859375 -4.53125 1.894531 -4.78125 1.875 C -5.03125 1.851562 -5.289062 1.78125 -5.5625 1.65625 C -5.84375 1.53125 -6.109375 1.367188 -6.359375 1.171875 C -6.609375 0.984375 -6.8125 0.773438 -6.96875 0.546875 C -7.164062 0.253906 -7.3125 -0.0390625 -7.40625 -0.34375 C -7.5 -0.65625 -7.488281 -0.972656 -7.375 -1.296875 C -7.257812 -1.617188 -6.972656 -1.9375 -6.515625 -2.25 L -3.734375 -4.125 C -3.609375 -4.207031 -3.515625 -4.300781 -3.453125 -4.40625 C -3.390625 -4.519531 -3.398438 -4.632812 -3.484375 -4.75 C -3.535156 -4.820312 -3.625 -4.867188 -3.75 -4.890625 C -3.875 -4.910156 -4.019531 -4.925781 -4.1875 -4.9375 C -4.21875 -4.925781 -4.226562 -4.953125 -4.21875 -5.015625 C -4.21875 -5.085938 -4.203125 -5.125 -4.171875 -5.125 C -3.929688 -5.101562 -3.703125 -5.0625 -3.484375 -5 C -3.265625 -4.9375 -3.09375 -4.804688 -2.96875 -4.609375 C -2.820312 -4.398438 -2.765625 -4.210938 -2.796875 -4.046875 C -2.828125 -3.890625 -2.894531 -3.753906 -3 -3.640625 C -3.101562 -3.523438 -3.195312 -3.4375 -3.28125 -3.375 L -3.953125 -2.921875 L -3.953125 -2.90625 C -3.765625 -2.9375 -3.546875 -2.945312 -3.296875 -2.9375 C -3.046875 -2.925781 -2.785156 -2.882812 -2.515625 -2.8125 C -2.242188 -2.75 -1.988281 -2.640625 -1.75 -2.484375 C -1.507812 -2.335938 -1.304688 -2.140625 -1.140625 -1.890625 Z M -1.875 -1.90625 C -2.050781 -2.164062 -2.273438 -2.351562 -2.546875 -2.46875 C -2.816406 -2.59375 -3.113281 -2.664062 -3.4375 -2.6875 C -3.769531 -2.707031 -4.082031 -2.6875 -4.375 -2.625 L -5.3125 -1.984375 C -4.851562 -1.503906 -4.453125 -1.132812 -4.109375 -0.875 C -3.765625 -0.613281 -3.46875 -0.425781 -3.21875 -0.3125 C -2.976562 -0.195312 -2.769531 -0.148438 -2.59375 -0.171875 C -2.414062 -0.191406 -2.269531 -0.242188 -2.15625 -0.328125 C -1.875 -0.515625 -1.710938 -0.757812 -1.671875 -1.0625 C -1.628906 -1.363281 -1.695312 -1.644531 -1.875 -1.90625 Z M -1.875 -1.90625 "/></g></g></g><g fill="#000000" fill-opacity="1"><g transform="translate(12.009533, 52.575132)"><g><path d="M -3.640625 -5.15625 C -3.421875 -5.238281 -3.242188 -5.3125 -3.109375 -5.375 C -2.972656 -5.4375 -2.882812 -5.53125 -2.84375 -5.65625 C -2.800781 -5.78125 -2.785156 -5.96875 -2.796875 -6.21875 C -2.804688 -6.238281 -2.765625 -6.265625 -2.671875 -6.296875 C -2.585938 -6.335938 -2.539062 -6.347656 -2.53125 -6.328125 C -2.476562 -6.210938 -2.421875 -6.101562 -2.359375 -6 C -2.296875 -5.894531 -2.21875 -5.773438 -2.125 -5.640625 C -2.039062 -5.503906 -1.929688 -5.316406 -1.796875 -5.078125 C -1.785156 -5.054688 -1.785156 -5.019531 -1.796875 -4.96875 C -1.816406 -4.925781 -1.84375 -4.898438 -1.875 -4.890625 L -2.8125 -4.609375 L -2.796875 -4.53125 C -2.390625 -4.300781 -2.007812 -4.035156 -1.65625 -3.734375 C -1.300781 -3.441406 -1.039062 -3.078125 -0.875 -2.640625 C -0.65625 -2.078125 -0.664062 -1.597656 -0.90625 -1.203125 C -1.15625 -0.804688 -1.671875 -0.457031 -2.453125 -0.15625 L -4.421875 0.578125 C -4.660156 0.671875 -4.847656 0.753906 -4.984375 0.828125 C -5.117188 0.898438 -5.207031 1 -5.25 1.125 C -5.289062 1.25 -5.300781 1.429688 -5.28125 1.671875 C -5.28125 1.710938 -5.320312 1.742188 -5.40625 1.765625 C -5.488281 1.796875 -5.539062 1.800781 -5.5625 1.78125 C -5.675781 1.5625 -5.796875 1.335938 -5.921875 1.109375 C -6.054688 0.890625 -6.191406 0.675781 -6.328125 0.46875 C -6.328125 0.457031 -6.320312 0.4375 -6.3125 0.40625 C -6.3125 0.375 -6.300781 0.359375 -6.28125 0.359375 L -2.921875 -0.90625 C -2.242188 -1.164062 -1.820312 -1.460938 -1.65625 -1.796875 C -1.488281 -2.128906 -1.476562 -2.488281 -1.625 -2.875 C -1.75 -3.21875 -1.960938 -3.515625 -2.265625 -3.765625 C -2.578125 -4.023438 -2.867188 -4.234375 -3.140625 -4.390625 L -5.90625 -3.34375 C -6.144531 -3.25 -6.332031 -3.164062 -6.46875 -3.09375 C -6.601562 -3.03125 -6.691406 -2.9375 -6.734375 -2.8125 C -6.773438 -2.6875 -6.785156 -2.5 -6.765625 -2.25 C -6.765625 -2.21875 -6.804688 -2.1875 -6.890625 -2.15625 C -6.972656 -2.125 -7.023438 -2.117188 -7.046875 -2.140625 C -7.148438 -2.335938 -7.257812 -2.523438 -7.375 -2.703125 C -7.488281 -2.890625 -7.632812 -3.140625 -7.8125 -3.453125 C -7.820312 -3.472656 -7.820312 -3.5 -7.8125 -3.53125 C -7.800781 -3.5625 -7.785156 -3.582031 -7.765625 -3.59375 Z M -3.640625 -5.15625 "/></g></g></g><g fill="#000000" fill-opacity="1"><g transform="translate(9.38626, 46.066462)"><g><path d="M -8.671875 -7.78125 C -8.679688 -7.800781 -8.65625 -7.816406 -8.59375 -7.828125 C -8.539062 -7.835938 -8.484375 -7.84375 -8.421875 -7.84375 C -8.359375 -7.84375 -8.320312 -7.832031 -8.3125 -7.8125 C -8.289062 -7.570312 -8.242188 -7.367188 -8.171875 -7.203125 C -8.109375 -7.035156 -7.972656 -6.878906 -7.765625 -6.734375 C -7.566406 -6.597656 -7.269531 -6.453125 -6.875 -6.296875 L -3.28125 -4.765625 L -1.953125 -4.890625 C -1.585938 -4.921875 -1.328125 -4.976562 -1.171875 -5.0625 C -1.023438 -5.144531 -0.941406 -5.300781 -0.921875 -5.53125 C -0.910156 -5.769531 -0.925781 -6.109375 -0.96875 -6.546875 C -0.976562 -6.566406 -0.957031 -6.582031 -0.90625 -6.59375 C -0.851562 -6.601562 -0.796875 -6.609375 -0.734375 -6.609375 C -0.671875 -6.609375 -0.632812 -6.597656 -0.625 -6.578125 L -0.46875 -4.890625 L -0.40625 -4.1875 L -0.234375 -2.5 C -0.234375 -2.476562 -0.265625 -2.457031 -0.328125 -2.4375 C -0.390625 -2.425781 -0.445312 -2.421875 -0.5 -2.421875 C -0.550781 -2.429688 -0.578125 -2.445312 -0.578125 -2.46875 C -0.617188 -2.90625 -0.664062 -3.234375 -0.71875 -3.453125 C -0.78125 -3.671875 -0.894531 -3.804688 -1.0625 -3.859375 C -1.226562 -3.921875 -1.492188 -3.9375 -1.859375 -3.90625 L -3.125 -3.78125 L -6.453125 -1.453125 C -6.742188 -1.242188 -6.96875 -1.066406 -7.125 -0.921875 C -7.289062 -0.785156 -7.398438 -0.648438 -7.453125 -0.515625 C -7.515625 -0.378906 -7.546875 -0.238281 -7.546875 -0.09375 C -7.554688 0.0507812 -7.550781 0.234375 -7.53125 0.453125 C -7.53125 0.460938 -7.554688 0.472656 -7.609375 0.484375 C -7.671875 0.492188 -7.734375 0.5 -7.796875 0.5 C -7.859375 0.5 -7.890625 0.492188 -7.890625 0.484375 L -7.984375 -0.609375 L -8.078125 -1.484375 L -8.21875 -2.96875 C -8.21875 -3 -8.1875 -3.015625 -8.125 -3.015625 C -8.070312 -3.023438 -8.015625 -3.03125 -7.953125 -3.03125 C -7.890625 -3.039062 -7.859375 -3.03125 -7.859375 -3 C -7.816406 -2.613281 -7.769531 -2.335938 -7.71875 -2.171875 C -7.664062 -2.015625 -7.554688 -1.96875 -7.390625 -2.03125 C -7.222656 -2.101562 -6.941406 -2.273438 -6.546875 -2.546875 L -3.71875 -4.515625 L -6.703125 -5.78125 C -7.128906 -5.957031 -7.441406 -6.050781 -7.640625 -6.0625 C -7.847656 -6.070312 -7.972656 -6 -8.015625 -5.84375 C -8.066406 -5.695312 -8.078125 -5.453125 -8.046875 -5.109375 C -8.046875 -5.097656 -8.078125 -5.085938 -8.140625 -5.078125 C -8.203125 -5.066406 -8.265625 -5.0625 -8.328125 -5.0625 C -8.390625 -5.0625 -8.421875 -5.066406 -8.421875 -5.078125 L -8.546875 -6.453125 L -8.578125 -6.78125 Z M -8.671875 -7.78125 "/></g></g></g><g fill="#000000" fill-opacity="1"><g transform="translate(8.657471, 37.645423)"><g><path d="M 0.46875 -2.15625 C 0.382812 -1.6875 0.191406 -1.328125 -0.109375 -1.078125 C -0.410156 -0.828125 -0.773438 -0.734375 -1.203125 -0.796875 C -1.546875 -0.859375 -1.84375 -1.039062 -2.09375 -1.34375 C -2.34375 -1.65625 -2.53125 -2.113281 -2.65625 -2.71875 C -2.789062 -3.332031 -2.863281 -4.140625 -2.875 -5.140625 L -3.4375 -5.234375 C -3.988281 -5.328125 -4.394531 -5.265625 -4.65625 -5.046875 C -4.914062 -4.828125 -5.070312 -4.535156 -5.125 -4.171875 C -5.15625 -3.984375 -5.140625 -3.738281 -5.078125 -3.4375 C -5.015625 -3.132812 -4.910156 -2.878906 -4.765625 -2.671875 C -4.378906 -2.710938 -4.09375 -2.65625 -3.90625 -2.5 C -3.71875 -2.351562 -3.640625 -2.179688 -3.671875 -1.984375 C -3.691406 -1.859375 -3.753906 -1.753906 -3.859375 -1.671875 C -3.972656 -1.585938 -4.109375 -1.5625 -4.265625 -1.59375 C -4.429688 -1.613281 -4.597656 -1.71875 -4.765625 -1.90625 C -4.929688 -2.09375 -5.070312 -2.320312 -5.1875 -2.59375 C -5.300781 -2.875 -5.382812 -3.171875 -5.4375 -3.484375 C -5.488281 -3.796875 -5.492188 -4.09375 -5.453125 -4.375 C -5.390625 -4.726562 -5.285156 -5.046875 -5.140625 -5.328125 C -5.003906 -5.617188 -4.78125 -5.84375 -4.46875 -6 C -4.15625 -6.15625 -3.726562 -6.1875 -3.1875 -6.09375 L 0.125 -5.5625 C 0.269531 -5.539062 0.394531 -5.546875 0.5 -5.578125 C 0.613281 -5.609375 0.679688 -5.691406 0.703125 -5.828125 C 0.722656 -5.921875 0.691406 -6.019531 0.609375 -6.125 C 0.535156 -6.226562 0.445312 -6.34375 0.34375 -6.46875 C 0.3125 -6.488281 0.320312 -6.519531 0.375 -6.5625 C 0.425781 -6.601562 0.453125 -6.613281 0.453125 -6.59375 C 0.628906 -6.414062 0.773438 -6.226562 0.890625 -6.03125 C 1.003906 -5.84375 1.039062 -5.628906 1 -5.390625 C 0.957031 -5.148438 0.867188 -4.976562 0.734375 -4.875 C 0.609375 -4.769531 0.46875 -4.710938 0.3125 -4.703125 C 0.164062 -4.691406 0.0390625 -4.691406 -0.0625 -4.703125 L -0.875 -4.84375 L -0.890625 -4.828125 C -0.734375 -4.710938 -0.5625 -4.566406 -0.375 -4.390625 C -0.195312 -4.222656 -0.0390625 -4.019531 0.09375 -3.78125 C 0.238281 -3.539062 0.347656 -3.285156 0.421875 -3.015625 C 0.492188 -2.742188 0.507812 -2.457031 0.46875 -2.15625 Z M -0.0625 -2.671875 C -0.0078125 -2.972656 -0.0390625 -3.265625 -0.15625 -3.546875 C -0.269531 -3.828125 -0.4375 -4.082031 -0.65625 -4.3125 C -0.882812 -4.550781 -1.128906 -4.75 -1.390625 -4.90625 L -2.5 -5.09375 C -2.5 -4.425781 -2.460938 -3.878906 -2.390625 -3.453125 C -2.328125 -3.023438 -2.238281 -2.6875 -2.125 -2.4375 C -2.019531 -2.1875 -1.898438 -2.007812 -1.765625 -1.90625 C -1.628906 -1.800781 -1.488281 -1.734375 -1.34375 -1.703125 C -1.007812 -1.648438 -0.722656 -1.71875 -0.484375 -1.90625 C -0.253906 -2.101562 -0.113281 -2.359375 -0.0625 -2.671875 Z M -0.0625 -2.671875 "/></g></g></g><g fill="#000000" fill-opacity="1"><g transform="translate(9.707031, 31.258322)"><g><path d="M 1.28125 -2.984375 C 1.164062 -2.679688 1.023438 -2.429688 0.859375 -2.234375 C 0.703125 -2.035156 0.585938 -1.847656 0.515625 -1.671875 C 0.460938 -1.523438 0.46875 -1.425781 0.53125 -1.375 C 0.59375 -1.320312 0.648438 -1.265625 0.703125 -1.203125 C 0.710938 -1.179688 0.707031 -1.148438 0.6875 -1.109375 C 0.675781 -1.066406 0.660156 -1.046875 0.640625 -1.046875 L -1.921875 -1.65625 C -1.929688 -1.65625 -1.925781 -1.691406 -1.90625 -1.765625 C -1.894531 -1.847656 -1.878906 -1.882812 -1.859375 -1.875 C -1.316406 -1.800781 -0.851562 -1.816406 -0.46875 -1.921875 C -0.0820312 -2.023438 0.222656 -2.179688 0.453125 -2.390625 C 0.691406 -2.597656 0.859375 -2.828125 0.953125 -3.078125 C 1.128906 -3.523438 1.175781 -3.910156 1.09375 -4.234375 C 1.019531 -4.566406 0.820312 -4.796875 0.5 -4.921875 C 0.1875 -5.046875 -0.078125 -5.03125 -0.296875 -4.875 C -0.523438 -4.726562 -0.789062 -4.460938 -1.09375 -4.078125 L -1.640625 -3.421875 C -1.835938 -3.179688 -2.046875 -2.960938 -2.265625 -2.765625 C -2.484375 -2.578125 -2.722656 -2.453125 -2.984375 -2.390625 C -3.242188 -2.328125 -3.53125 -2.351562 -3.84375 -2.46875 C -4.21875 -2.613281 -4.476562 -2.816406 -4.625 -3.078125 C -4.769531 -3.347656 -4.835938 -3.628906 -4.828125 -3.921875 C -4.828125 -4.222656 -4.78125 -4.492188 -4.6875 -4.734375 C -4.5625 -5.046875 -4.414062 -5.300781 -4.25 -5.5 C -4.082031 -5.707031 -3.972656 -5.882812 -3.921875 -6.03125 C -3.859375 -6.175781 -3.859375 -6.269531 -3.921875 -6.3125 C -3.984375 -6.351562 -4.046875 -6.398438 -4.109375 -6.453125 C -4.109375 -6.460938 -4.097656 -6.488281 -4.078125 -6.53125 C -4.066406 -6.582031 -4.054688 -6.613281 -4.046875 -6.625 L -1.65625 -6.03125 C -1.632812 -6.019531 -1.632812 -5.976562 -1.65625 -5.90625 C -1.675781 -5.832031 -1.695312 -5.789062 -1.71875 -5.78125 C -2.25 -5.863281 -2.6875 -5.863281 -3.03125 -5.78125 C -3.382812 -5.695312 -3.664062 -5.550781 -3.875 -5.34375 C -4.082031 -5.132812 -4.238281 -4.898438 -4.34375 -4.640625 C -4.457031 -4.335938 -4.476562 -4.050781 -4.40625 -3.78125 C -4.332031 -3.519531 -4.144531 -3.328125 -3.84375 -3.203125 C -3.539062 -3.085938 -3.28125 -3.097656 -3.0625 -3.234375 C -2.851562 -3.378906 -2.601562 -3.640625 -2.3125 -4.015625 L -1.875 -4.53125 C -1.65625 -4.820312 -1.425781 -5.078125 -1.1875 -5.296875 C -0.957031 -5.523438 -0.710938 -5.675781 -0.453125 -5.75 C -0.203125 -5.832031 0.0703125 -5.816406 0.375 -5.703125 C 0.789062 -5.546875 1.085938 -5.3125 1.265625 -5 C 1.441406 -4.695312 1.519531 -4.367188 1.5 -4.015625 C 1.476562 -3.660156 1.40625 -3.316406 1.28125 -2.984375 Z M 1.28125 -2.984375 "/></g></g></g><g fill="#000000" fill-opacity="1"><g transform="translate(11.596374, 26.040232)"><g><path d="M 2.046875 -5.96875 C 2.242188 -5.84375 2.410156 -5.742188 2.546875 -5.671875 C 2.679688 -5.597656 2.8125 -5.578125 2.9375 -5.609375 C 3.0625 -5.648438 3.222656 -5.75 3.421875 -5.90625 C 3.429688 -5.925781 3.472656 -5.910156 3.546875 -5.859375 C 3.628906 -5.804688 3.664062 -5.769531 3.65625 -5.75 C 3.59375 -5.625 3.539062 -5.507812 3.5 -5.40625 C 3.457031 -5.300781 3.398438 -5.171875 3.328125 -5.015625 C 3.265625 -4.867188 3.179688 -4.671875 3.078125 -4.421875 C 3.066406 -4.398438 3.035156 -4.378906 2.984375 -4.359375 C 2.941406 -4.347656 2.90625 -4.351562 2.875 -4.375 L 2.109375 -4.96875 L 2.0625 -4.90625 C 2.101562 -4.445312 2.109375 -3.984375 2.078125 -3.515625 C 2.046875 -3.054688 1.898438 -2.628906 1.640625 -2.234375 C 1.304688 -1.742188 0.90625 -1.476562 0.4375 -1.4375 C -0.0195312 -1.40625 -0.597656 -1.617188 -1.296875 -2.078125 L -3.0625 -3.25 C -3.269531 -3.394531 -3.441406 -3.5 -3.578125 -3.5625 C -3.710938 -3.625 -3.84375 -3.640625 -3.96875 -3.609375 C -4.101562 -3.578125 -4.257812 -3.476562 -4.4375 -3.3125 C -4.46875 -3.28125 -4.519531 -3.289062 -4.59375 -3.34375 C -4.664062 -3.40625 -4.695312 -3.445312 -4.6875 -3.46875 C -4.570312 -3.695312 -4.460938 -3.925781 -4.359375 -4.15625 C -4.253906 -4.394531 -4.15625 -4.628906 -4.0625 -4.859375 C -4.050781 -4.867188 -4.035156 -4.882812 -4.015625 -4.90625 C -3.992188 -4.925781 -3.972656 -4.921875 -3.953125 -4.890625 L -0.953125 -2.90625 C -0.347656 -2.5 0.128906 -2.328125 0.484375 -2.390625 C 0.847656 -2.453125 1.144531 -2.648438 1.375 -2.984375 C 1.582031 -3.296875 1.703125 -3.648438 1.734375 -4.046875 C 1.765625 -4.453125 1.765625 -4.804688 1.734375 -5.109375 L -0.734375 -6.75 C -0.941406 -6.894531 -1.113281 -7 -1.25 -7.0625 C -1.382812 -7.125 -1.515625 -7.140625 -1.640625 -7.109375 C -1.773438 -7.078125 -1.9375 -6.976562 -2.125 -6.8125 C -2.144531 -6.789062 -2.191406 -6.804688 -2.265625 -6.859375 C -2.335938 -6.910156 -2.375 -6.945312 -2.375 -6.96875 C -2.269531 -7.164062 -2.175781 -7.363281 -2.09375 -7.5625 C -2.007812 -7.769531 -1.894531 -8.035156 -1.75 -8.359375 C -1.726562 -8.378906 -1.707031 -8.394531 -1.6875 -8.40625 C -1.664062 -8.425781 -1.644531 -8.425781 -1.625 -8.40625 Z M 2.046875 -5.96875 "/></g></g></g><g fill="#000000" fill-opacity="1"><g transform="translate(15.153954, 19.988616)"><g><path d="M 8.46875 -7.21875 C 8.476562 -7.226562 8.5 -7.210938 8.53125 -7.171875 C 8.570312 -7.128906 8.609375 -7.082031 8.640625 -7.03125 C 8.679688 -6.988281 8.695312 -6.960938 8.6875 -6.953125 L 7.953125 -6.359375 L 7.34375 -5.875 L 6.640625 -5.328125 C 6.640625 -5.316406 6.617188 -5.332031 6.578125 -5.375 C 6.535156 -5.414062 6.5 -5.457031 6.46875 -5.5 C 6.4375 -5.550781 6.421875 -5.582031 6.421875 -5.59375 C 6.640625 -5.757812 6.78125 -5.894531 6.84375 -6 C 6.90625 -6.101562 6.90625 -6.210938 6.84375 -6.328125 C 6.789062 -6.453125 6.6875 -6.613281 6.53125 -6.8125 L 5.078125 -8.609375 C 4.628906 -9.171875 4.25 -9.5 3.9375 -9.59375 C 3.625 -9.6875 3.304688 -9.609375 2.984375 -9.359375 C 2.703125 -9.128906 2.484375 -8.832031 2.328125 -8.46875 C 2.171875 -8.113281 2.054688 -7.757812 1.984375 -7.40625 C 2.078125 -7.320312 2.171875 -7.226562 2.265625 -7.125 C 2.359375 -7.019531 2.445312 -6.910156 2.53125 -6.796875 L 4.09375 -4.859375 C 4.25 -4.660156 4.375 -4.515625 4.46875 -4.421875 C 4.570312 -4.335938 4.6875 -4.316406 4.8125 -4.359375 C 4.9375 -4.410156 5.109375 -4.523438 5.328125 -4.703125 C 5.335938 -4.710938 5.363281 -4.695312 5.40625 -4.65625 C 5.445312 -4.625 5.484375 -4.582031 5.515625 -4.53125 C 5.546875 -4.476562 5.554688 -4.445312 5.546875 -4.4375 L 4.8125 -3.859375 L 4.203125 -3.375 L 3.515625 -2.8125 C 3.503906 -2.800781 3.476562 -2.816406 3.4375 -2.859375 C 3.394531 -2.910156 3.359375 -2.957031 3.328125 -3 C 3.296875 -3.039062 3.285156 -3.066406 3.296875 -3.078125 C 3.503906 -3.242188 3.640625 -3.378906 3.703125 -3.484375 C 3.773438 -3.597656 3.78125 -3.710938 3.71875 -3.828125 C 3.664062 -3.953125 3.5625 -4.113281 3.40625 -4.3125 L 1.953125 -6.109375 C 1.503906 -6.671875 1.117188 -7 0.796875 -7.09375 C 0.484375 -7.1875 0.171875 -7.101562 -0.140625 -6.84375 C -0.429688 -6.613281 -0.648438 -6.320312 -0.796875 -5.96875 C -0.941406 -5.613281 -1.050781 -5.265625 -1.125 -4.921875 L 0.953125 -2.34375 C 1.109375 -2.144531 1.234375 -2 1.328125 -1.90625 C 1.429688 -1.820312 1.539062 -1.800781 1.65625 -1.84375 C 1.769531 -1.882812 1.929688 -1.988281 2.140625 -2.15625 C 2.148438 -2.164062 2.175781 -2.148438 2.21875 -2.109375 C 2.257812 -2.066406 2.296875 -2.019531 2.328125 -1.96875 C 2.359375 -1.925781 2.367188 -1.898438 2.359375 -1.890625 L 1.671875 -1.34375 L 1.0625 -0.84375 L 0.328125 -0.265625 C 0.316406 -0.253906 0.289062 -0.269531 0.25 -0.3125 C 0.21875 -0.363281 0.179688 -0.410156 0.140625 -0.453125 C 0.109375 -0.492188 0.0976562 -0.519531 0.109375 -0.53125 C 0.335938 -0.707031 0.488281 -0.847656 0.5625 -0.953125 C 0.632812 -1.066406 0.640625 -1.179688 0.578125 -1.296875 C 0.523438 -1.421875 0.421875 -1.582031 0.265625 -1.78125 L -1.6875 -4.203125 C -1.84375 -4.410156 -1.976562 -4.5625 -2.09375 -4.65625 C -2.207031 -4.757812 -2.328125 -4.816406 -2.453125 -4.828125 C -2.578125 -4.835938 -2.753906 -4.789062 -2.984375 -4.6875 C -3.003906 -4.6875 -3.039062 -4.71875 -3.09375 -4.78125 C -3.15625 -4.84375 -3.179688 -4.890625 -3.171875 -4.921875 C -3.085938 -5.015625 -3.019531 -5.085938 -2.96875 -5.140625 C -2.914062 -5.203125 -2.863281 -5.257812 -2.8125 -5.3125 C -2.757812 -5.375 -2.6875 -5.457031 -2.59375 -5.5625 C -2.5 -5.664062 -2.375 -5.804688 -2.21875 -5.984375 C -2.195312 -6.015625 -2.160156 -6.03125 -2.109375 -6.03125 C -2.066406 -6.039062 -2.035156 -6.03125 -2.015625 -6 L -1.453125 -5.171875 L -1.390625 -5.21875 C -1.285156 -5.675781 -1.144531 -6.117188 -0.96875 -6.546875 C -0.800781 -6.984375 -0.53125 -7.351562 -0.15625 -7.65625 C 0.164062 -7.914062 0.472656 -8.046875 0.765625 -8.046875 C 1.066406 -8.046875 1.378906 -7.910156 1.703125 -7.640625 C 1.773438 -7.953125 1.863281 -8.265625 1.96875 -8.578125 C 2.070312 -8.890625 2.203125 -9.179688 2.359375 -9.453125 C 2.523438 -9.734375 2.722656 -9.96875 2.953125 -10.15625 C 3.429688 -10.53125 3.875 -10.640625 4.28125 -10.484375 C 4.695312 -10.328125 5.15625 -9.929688 5.65625 -9.296875 L 7.21875 -7.359375 C 7.375 -7.160156 7.5 -7.015625 7.59375 -6.921875 C 7.695312 -6.835938 7.8125 -6.816406 7.9375 -6.859375 C 8.0625 -6.910156 8.238281 -7.03125 8.46875 -7.21875 Z M 8.46875 -7.21875 "/></g></g></g><g fill="#000000" fill-opacity="1"><g transform="translate(23.914024, 13.308827)"><g><path d="M 3.375 -1.171875 C 2.8125 -0.953125 2.265625 -0.878906 1.734375 -0.953125 C 1.203125 -1.035156 0.726562 -1.25 0.3125 -1.59375 C -0.09375 -1.9375 -0.40625 -2.382812 -0.625 -2.9375 C -0.84375 -3.507812 -0.910156 -4.054688 -0.828125 -4.578125 C -0.753906 -5.109375 -0.550781 -5.582031 -0.21875 -6 C 0.113281 -6.414062 0.5625 -6.734375 1.125 -6.953125 C 1.6875 -7.171875 2.234375 -7.238281 2.765625 -7.15625 C 3.304688 -7.082031 3.78125 -6.875 4.1875 -6.53125 C 4.59375 -6.195312 4.90625 -5.742188 5.125 -5.171875 C 5.34375 -4.617188 5.414062 -4.078125 5.34375 -3.546875 C 5.269531 -3.015625 5.0625 -2.539062 4.71875 -2.125 C 4.382812 -1.707031 3.9375 -1.390625 3.375 -1.171875 Z M 3.25 -1.484375 C 3.632812 -1.640625 3.929688 -1.878906 4.140625 -2.203125 C 4.347656 -2.535156 4.457031 -2.925781 4.46875 -3.375 C 4.476562 -3.820312 4.382812 -4.300781 4.1875 -4.8125 C 3.988281 -5.332031 3.734375 -5.753906 3.421875 -6.078125 C 3.109375 -6.410156 2.765625 -6.625 2.390625 -6.71875 C 2.015625 -6.8125 1.632812 -6.78125 1.25 -6.625 C 0.851562 -6.476562 0.550781 -6.242188 0.34375 -5.921875 C 0.132812 -5.597656 0.0234375 -5.210938 0.015625 -4.765625 C 0.015625 -4.316406 0.113281 -3.828125 0.3125 -3.296875 C 0.507812 -2.785156 0.757812 -2.363281 1.0625 -2.03125 C 1.375 -1.707031 1.71875 -1.5 2.09375 -1.40625 C 2.46875 -1.3125 2.851562 -1.335938 3.25 -1.484375 Z M 3.25 -1.484375 "/></g></g></g><g fill="#000000" fill-opacity="1"><g transform="translate(30.291329, 10.908937)"><g><path d="M 1.34375 -0.234375 L 0.421875 -0.078125 C 0.410156 -0.0664062 0.394531 -0.0859375 0.375 -0.140625 C 0.363281 -0.203125 0.351562 -0.257812 0.34375 -0.3125 C 0.34375 -0.375 0.347656 -0.410156 0.359375 -0.421875 C 0.640625 -0.460938 0.835938 -0.515625 0.953125 -0.578125 C 1.078125 -0.640625 1.140625 -0.734375 1.140625 -0.859375 C 1.148438 -0.992188 1.132812 -1.1875 1.09375 -1.4375 L 0.5625 -4.5 C 0.519531 -4.757812 0.476562 -4.957031 0.4375 -5.09375 C 0.394531 -5.226562 0.3125 -5.332031 0.1875 -5.40625 C 0.0625 -5.476562 -0.128906 -5.523438 -0.390625 -5.546875 C -0.410156 -5.546875 -0.425781 -5.59375 -0.4375 -5.6875 C -0.445312 -5.78125 -0.445312 -5.832031 -0.4375 -5.84375 C -0.332031 -5.882812 -0.238281 -5.914062 -0.15625 -5.9375 C -0.0820312 -5.957031 -0.0078125 -5.976562 0.0625 -6 C 0.144531 -6.03125 0.25 -6.066406 0.375 -6.109375 C 0.507812 -6.160156 0.695312 -6.226562 0.9375 -6.3125 C 0.988281 -6.332031 1.035156 -6.332031 1.078125 -6.3125 C 1.117188 -6.289062 1.140625 -6.265625 1.140625 -6.234375 C 1.148438 -6.109375 1.160156 -6.015625 1.171875 -5.953125 C 1.179688 -5.898438 1.1875 -5.835938 1.1875 -5.765625 C 1.195312 -5.703125 1.210938 -5.601562 1.234375 -5.46875 C 1.253906 -5.332031 1.273438 -5.128906 1.296875 -4.859375 L 1.359375 -4.875 C 1.421875 -5.175781 1.550781 -5.457031 1.75 -5.71875 C 1.945312 -5.988281 2.171875 -6.210938 2.421875 -6.390625 C 2.679688 -6.566406 2.921875 -6.671875 3.140625 -6.703125 C 3.410156 -6.753906 3.617188 -6.734375 3.765625 -6.640625 C 3.921875 -6.554688 4.015625 -6.4375 4.046875 -6.28125 C 4.078125 -6.113281 4.023438 -5.972656 3.890625 -5.859375 C 3.753906 -5.742188 3.601562 -5.675781 3.4375 -5.65625 C 3.269531 -5.625 3.097656 -5.625 2.921875 -5.65625 C 2.753906 -5.695312 2.597656 -5.75 2.453125 -5.8125 L 2.4375 -5.8125 C 2.40625 -5.8125 2.320312 -5.757812 2.1875 -5.65625 C 2.050781 -5.5625 1.910156 -5.410156 1.765625 -5.203125 C 1.628906 -4.992188 1.535156 -4.71875 1.484375 -4.375 L 1.96875 -1.59375 C 2.007812 -1.34375 2.054688 -1.15625 2.109375 -1.03125 C 2.171875 -0.914062 2.28125 -0.847656 2.4375 -0.828125 C 2.601562 -0.816406 2.875 -0.84375 3.25 -0.90625 C 3.269531 -0.90625 3.285156 -0.878906 3.296875 -0.828125 C 3.316406 -0.773438 3.328125 -0.71875 3.328125 -0.65625 C 3.335938 -0.59375 3.332031 -0.5625 3.3125 -0.5625 Z M 1.34375 -0.234375 "/></g></g></g><g fill="#000000" fill-opacity="1"><g transform="translate(35.151982, 10.125937)"><g><path d="M 1.5 -7.09375 C 1.332031 -7.082031 1.1875 -7.128906 1.0625 -7.234375 C 0.9375 -7.347656 0.875 -7.488281 0.875 -7.65625 C 0.875 -7.8125 0.925781 -7.945312 1.03125 -8.0625 C 1.144531 -8.175781 1.289062 -8.238281 1.46875 -8.25 C 1.644531 -8.25 1.796875 -8.195312 1.921875 -8.09375 C 2.046875 -8 2.109375 -7.863281 2.109375 -7.6875 C 2.109375 -7.519531 2.054688 -7.378906 1.953125 -7.265625 C 1.847656 -7.148438 1.695312 -7.09375 1.5 -7.09375 Z M 1.359375 -0.03125 L 0.421875 -0.015625 C 0.410156 -0.015625 0.398438 -0.0390625 0.390625 -0.09375 C 0.390625 -0.15625 0.390625 -0.210938 0.390625 -0.265625 C 0.390625 -0.328125 0.394531 -0.359375 0.40625 -0.359375 C 0.695312 -0.359375 0.90625 -0.378906 1.03125 -0.421875 C 1.15625 -0.472656 1.226562 -0.5625 1.25 -0.6875 C 1.28125 -0.820312 1.289062 -1.015625 1.28125 -1.265625 L 1.203125 -4.328125 C 1.191406 -4.660156 1.160156 -4.898438 1.109375 -5.046875 C 1.066406 -5.203125 0.992188 -5.304688 0.890625 -5.359375 C 0.785156 -5.421875 0.640625 -5.484375 0.453125 -5.546875 C 0.441406 -5.554688 0.429688 -5.601562 0.421875 -5.6875 C 0.410156 -5.78125 0.414062 -5.832031 0.4375 -5.84375 C 0.675781 -5.882812 0.921875 -5.929688 1.171875 -5.984375 C 1.429688 -6.035156 1.6875 -6.085938 1.9375 -6.140625 C 1.957031 -6.140625 1.976562 -6.128906 2 -6.109375 C 2.03125 -6.097656 2.046875 -6.082031 2.046875 -6.0625 L 2.171875 -1.296875 C 2.179688 -1.046875 2.195312 -0.851562 2.21875 -0.71875 C 2.25 -0.59375 2.320312 -0.507812 2.4375 -0.46875 C 2.5625 -0.425781 2.769531 -0.410156 3.0625 -0.421875 C 3.070312 -0.421875 3.082031 -0.390625 3.09375 -0.328125 C 3.101562 -0.273438 3.101562 -0.21875 3.09375 -0.15625 C 3.09375 -0.101562 3.085938 -0.078125 3.078125 -0.078125 L 2.140625 -0.0625 Z M 1.359375 -0.03125 "/></g></g></g><g fill="#000000" fill-opacity="1"><g transform="translate(38.316288, 9.530407)"><g><path d="M 5.234375 -3.234375 C 5.09375 -2.578125 5.515625 -1.953125 6.15625 -1.8125 C 6.8125 -1.671875 7.4375 -2.078125 7.578125 -2.734375 C 7.734375 -3.390625 7.328125 -4 6.671875 -4.140625 C 6.03125 -4.28125 5.390625 -3.890625 5.234375 -3.234375 Z M 5.234375 -3.234375 "/></g></g></g><g fill="#000000" fill-opacity="1"><g transform="translate(48.806454, 12.010371)"><g><path d="M 5.1875 -0.59375 L 3.84375 -1.375 L 3.046875 -0.03125 C 2.847656 0.3125 2.738281 0.570312 2.71875 0.75 C 2.707031 0.925781 2.789062 1.082031 2.96875 1.21875 C 3.15625 1.363281 3.4375 1.550781 3.8125 1.78125 C 3.84375 1.789062 3.84375 1.828125 3.8125 1.890625 C 3.78125 1.960938 3.742188 2.019531 3.703125 2.0625 C 3.660156 2.113281 3.628906 2.132812 3.609375 2.125 L 2.140625 1.25 L 1.5 0.875 L 0.46875 0.28125 C 0.445312 0.269531 0.453125 0.234375 0.484375 0.171875 C 0.515625 0.117188 0.539062 0.0703125 0.5625 0.03125 C 0.59375 -0.0078125 0.617188 -0.0234375 0.640625 -0.015625 C 0.898438 0.128906 1.101562 0.226562 1.25 0.28125 C 1.40625 0.34375 1.546875 0.316406 1.671875 0.203125 C 1.804688 0.0976562 1.96875 -0.101562 2.15625 -0.40625 L 4.6875 -4.734375 C 4.875 -5.046875 4.976562 -5.28125 5 -5.4375 C 5.019531 -5.59375 4.96875 -5.726562 4.84375 -5.84375 C 4.726562 -5.957031 4.539062 -6.082031 4.28125 -6.21875 C 4.257812 -6.226562 4.265625 -6.257812 4.296875 -6.3125 C 4.328125 -6.375 4.359375 -6.425781 4.390625 -6.46875 C 4.421875 -6.519531 4.445312 -6.539062 4.46875 -6.53125 L 5.5 -5.9375 L 7.453125 -4.78125 C 8.441406 -4.207031 9.109375 -3.578125 9.453125 -2.890625 C 9.796875 -2.203125 9.789062 -1.550781 9.4375 -0.9375 C 9.1875 -0.519531 8.847656 -0.222656 8.421875 -0.046875 C 8.003906 0.117188 7.519531 0.160156 6.96875 0.078125 C 6.414062 0.00390625 5.820312 -0.21875 5.1875 -0.59375 Z M 6.109375 -5.078125 C 6.078125 -5.046875 6.035156 -5 5.984375 -4.9375 C 5.929688 -4.875 5.859375 -4.769531 5.765625 -4.625 C 5.671875 -4.488281 5.539062 -4.285156 5.375 -4.015625 L 4.046875 -1.734375 L 5.0625 -1.15625 C 5.800781 -0.71875 6.46875 -0.523438 7.0625 -0.578125 C 7.65625 -0.640625 8.117188 -0.957031 8.453125 -1.53125 C 8.785156 -2.082031 8.820312 -2.609375 8.5625 -3.109375 C 8.300781 -3.617188 7.800781 -4.09375 7.0625 -4.53125 Z M 6.109375 -5.078125 "/></g></g></g><g fill="#000000" fill-opacity="1"><g transform="translate(55.371442, 15.867038)"><g><path d="M 2.4375 2.59375 C 2.007812 2.164062 1.722656 1.691406 1.578125 1.171875 C 1.441406 0.660156 1.441406 0.148438 1.578125 -0.359375 C 1.722656 -0.878906 2.003906 -1.347656 2.421875 -1.765625 C 2.859375 -2.203125 3.332031 -2.492188 3.84375 -2.640625 C 4.351562 -2.796875 4.863281 -2.804688 5.375 -2.671875 C 5.894531 -2.535156 6.367188 -2.253906 6.796875 -1.828125 C 7.234375 -1.398438 7.523438 -0.925781 7.671875 -0.40625 C 7.816406 0.101562 7.816406 0.613281 7.671875 1.125 C 7.535156 1.644531 7.25 2.125 6.8125 2.5625 C 6.394531 2.976562 5.929688 3.257812 5.421875 3.40625 C 4.910156 3.5625 4.394531 3.570312 3.875 3.4375 C 3.351562 3.300781 2.875 3.019531 2.4375 2.59375 Z M 2.6875 2.34375 C 2.988281 2.632812 3.332031 2.804688 3.71875 2.859375 C 4.101562 2.921875 4.5 2.863281 4.90625 2.6875 C 5.320312 2.519531 5.722656 2.238281 6.109375 1.84375 C 6.492188 1.445312 6.773438 1.035156 6.953125 0.609375 C 7.128906 0.191406 7.179688 -0.203125 7.109375 -0.578125 C 7.046875 -0.953125 6.863281 -1.285156 6.5625 -1.578125 C 6.269531 -1.867188 5.929688 -2.046875 5.546875 -2.109375 C 5.171875 -2.171875 4.773438 -2.113281 4.359375 -1.9375 C 3.941406 -1.757812 3.535156 -1.46875 3.140625 -1.0625 C 2.753906 -0.675781 2.472656 -0.273438 2.296875 0.140625 C 2.128906 0.554688 2.078125 0.953125 2.140625 1.328125 C 2.210938 1.710938 2.394531 2.050781 2.6875 2.34375 Z M 2.6875 2.34375 "/></g></g></g><g fill="#000000" fill-opacity="1"><g transform="translate(60.175702, 20.698904)"><g><path d="M 0.75 1.125 L 0.234375 0.34375 C 0.222656 0.34375 0.238281 0.320312 0.28125 0.28125 C 0.332031 0.25 0.378906 0.21875 0.421875 0.1875 C 0.472656 0.164062 0.503906 0.15625 0.515625 0.15625 C 0.679688 0.40625 0.816406 0.566406 0.921875 0.640625 C 1.023438 0.722656 1.140625 0.738281 1.265625 0.6875 C 1.390625 0.632812 1.554688 0.539062 1.765625 0.40625 L 4.34375 -1.328125 C 4.5625 -1.472656 4.722656 -1.59375 4.828125 -1.6875 C 4.941406 -1.789062 5.003906 -1.910156 5.015625 -2.046875 C 5.023438 -2.191406 4.984375 -2.390625 4.890625 -2.640625 C 4.890625 -2.660156 4.925781 -2.691406 5 -2.734375 C 5.070312 -2.785156 5.117188 -2.8125 5.140625 -2.8125 C 5.222656 -2.71875 5.289062 -2.640625 5.34375 -2.578125 C 5.394531 -2.515625 5.445312 -2.453125 5.5 -2.390625 C 5.550781 -2.335938 5.625 -2.257812 5.71875 -2.15625 C 5.820312 -2.0625 5.960938 -1.921875 6.140625 -1.734375 C 6.179688 -1.691406 6.195312 -1.648438 6.1875 -1.609375 C 6.1875 -1.566406 6.171875 -1.535156 6.140625 -1.515625 C 6.035156 -1.453125 5.957031 -1.398438 5.90625 -1.359375 C 5.863281 -1.328125 5.8125 -1.296875 5.75 -1.265625 C 5.695312 -1.234375 5.613281 -1.179688 5.5 -1.109375 C 5.382812 -1.046875 5.207031 -0.945312 4.96875 -0.8125 L 5 -0.75 C 5.3125 -0.820312 5.625 -0.820312 5.9375 -0.75 C 6.257812 -0.675781 6.550781 -0.554688 6.8125 -0.390625 C 7.082031 -0.234375 7.273438 -0.0664062 7.390625 0.109375 C 7.546875 0.335938 7.617188 0.539062 7.609375 0.71875 C 7.597656 0.894531 7.523438 1.023438 7.390625 1.109375 C 7.253906 1.203125 7.109375 1.210938 6.953125 1.140625 C 6.796875 1.066406 6.671875 0.960938 6.578125 0.828125 C 6.484375 0.691406 6.414062 0.535156 6.375 0.359375 C 6.332031 0.179688 6.3125 0.0078125 6.3125 -0.15625 L 6.296875 -0.171875 C 6.285156 -0.191406 6.207031 -0.238281 6.0625 -0.3125 C 5.925781 -0.394531 5.734375 -0.460938 5.484375 -0.515625 C 5.234375 -0.566406 4.941406 -0.539062 4.609375 -0.4375 L 2.265625 1.140625 C 2.054688 1.273438 1.90625 1.394531 1.8125 1.5 C 1.71875 1.601562 1.695312 1.734375 1.75 1.890625 C 1.8125 2.054688 1.945312 2.296875 2.15625 2.609375 C 2.164062 2.617188 2.144531 2.640625 2.09375 2.671875 C 2.050781 2.710938 2.003906 2.742188 1.953125 2.765625 C 1.910156 2.796875 1.882812 2.804688 1.875 2.796875 L 1.1875 1.765625 Z M 0.75 1.125 "/></g></g></g><g fill="#000000" fill-opacity="1"><g transform="translate(62.899574, 24.77488)"><g><path d="M 0.9375 2.296875 C 0.769531 1.953125 0.742188 1.628906 0.859375 1.328125 C 0.984375 1.023438 1.300781 0.753906 1.8125 0.515625 L 5.609375 -1.234375 L 5.234375 -2.0625 L 5.515625 -2.140625 C 5.847656 -1.796875 6.21875 -1.578125 6.625 -1.484375 C 7.03125 -1.398438 7.492188 -1.429688 8.015625 -1.578125 C 8.046875 -1.566406 8.066406 -1.539062 8.078125 -1.5 C 8.097656 -1.457031 8.097656 -1.429688 8.078125 -1.421875 L 6.296875 -0.59375 L 6.953125 0.828125 L 6.578125 0.84375 L 5.984375 -0.4375 L 2.25 1.296875 C 1.894531 1.460938 1.671875 1.640625 1.578125 1.828125 C 1.484375 2.023438 1.484375 2.21875 1.578125 2.40625 C 1.648438 2.5625 1.765625 2.6875 1.921875 2.78125 C 2.085938 2.875 2.316406 2.941406 2.609375 2.984375 C 2.648438 2.992188 2.660156 3.023438 2.640625 3.078125 C 2.628906 3.140625 2.613281 3.171875 2.59375 3.171875 C 2.15625 3.097656 1.800781 3 1.53125 2.875 C 1.257812 2.757812 1.0625 2.566406 0.9375 2.296875 Z M 0.9375 2.296875 "/></g></g></g><g fill="#000000" fill-opacity="1"><g transform="translate(64.651186, 28.497363)"><g><path d="M 1.90625 1.953125 C 1.65625 2.023438 1.472656 2.09375 1.359375 2.15625 C 1.242188 2.226562 1.179688 2.34375 1.171875 2.5 C 1.171875 2.664062 1.222656 2.921875 1.328125 3.265625 C 1.335938 3.285156 1.316406 3.300781 1.265625 3.3125 C 1.210938 3.332031 1.15625 3.347656 1.09375 3.359375 C 1.039062 3.378906 1.007812 3.378906 1 3.359375 L 0.671875 2.25 L 0.453125 1.515625 L 0.1875 0.625 C 0.175781 0.601562 0.195312 0.582031 0.25 0.5625 C 0.3125 0.550781 0.367188 0.535156 0.421875 0.515625 C 0.472656 0.503906 0.503906 0.507812 0.515625 0.53125 C 0.597656 0.800781 0.675781 0.984375 0.75 1.078125 C 0.820312 1.179688 0.925781 1.226562 1.0625 1.21875 C 1.195312 1.21875 1.382812 1.179688 1.625 1.109375 L 5.8125 -0.140625 L 5.578125 -0.921875 L 5.953125 -0.859375 L 6.140625 -0.234375 C 6.734375 -0.410156 7.234375 -0.46875 7.640625 -0.40625 C 8.054688 -0.34375 8.382812 -0.195312 8.625 0.03125 C 8.863281 0.257812 9.03125 0.539062 9.125 0.875 C 9.195312 1.113281 9.21875 1.347656 9.1875 1.578125 C 9.164062 1.804688 9.109375 2.003906 9.015625 2.171875 C 8.921875 2.335938 8.804688 2.441406 8.671875 2.484375 C 8.554688 2.515625 8.453125 2.503906 8.359375 2.453125 C 8.265625 2.398438 8.195312 2.304688 8.15625 2.171875 C 8.113281 2.015625 8.144531 1.863281 8.25 1.71875 C 8.351562 1.582031 8.539062 1.460938 8.8125 1.359375 C 8.820312 1.296875 8.828125 1.226562 8.828125 1.15625 C 8.835938 1.09375 8.820312 1.007812 8.78125 0.90625 C 8.707031 0.65625 8.582031 0.476562 8.40625 0.375 C 8.226562 0.28125 8.023438 0.238281 7.796875 0.25 C 7.578125 0.257812 7.359375 0.296875 7.140625 0.359375 C 7.023438 0.398438 6.898438 0.441406 6.765625 0.484375 C 6.640625 0.523438 6.515625 0.566406 6.390625 0.609375 L 6.8125 2 L 6.4375 1.953125 L 6.0625 0.703125 Z M 1.90625 1.953125 "/></g></g></g><g fill="#000000" fill-opacity="1"><g transform="translate(65.995096, 32.449421)"><g><path d="M 0.234375 3.5625 C 0.171875 2.957031 0.25 2.410156 0.46875 1.921875 C 0.6875 1.441406 1.015625 1.046875 1.453125 0.734375 C 1.890625 0.429688 2.40625 0.25 3 0.1875 C 3.613281 0.125 4.160156 0.195312 4.640625 0.40625 C 5.128906 0.625 5.53125 0.945312 5.84375 1.375 C 6.15625 1.8125 6.34375 2.332031 6.40625 2.9375 C 6.46875 3.539062 6.390625 4.085938 6.171875 4.578125 C 5.953125 5.066406 5.625 5.460938 5.1875 5.765625 C 4.757812 6.078125 4.238281 6.265625 3.625 6.328125 C 3.03125 6.390625 2.488281 6.3125 2 6.09375 C 1.507812 5.882812 1.109375 5.5625 0.796875 5.125 C 0.484375 4.6875 0.296875 4.164062 0.234375 3.5625 Z M 0.578125 3.53125 C 0.617188 3.945312 0.769531 4.296875 1.03125 4.578125 C 1.289062 4.859375 1.632812 5.0625 2.0625 5.1875 C 2.488281 5.320312 2.976562 5.363281 3.53125 5.3125 C 4.082031 5.25 4.554688 5.109375 4.953125 4.890625 C 5.347656 4.679688 5.640625 4.410156 5.828125 4.078125 C 6.023438 3.753906 6.101562 3.382812 6.0625 2.96875 C 6.019531 2.550781 5.867188 2.195312 5.609375 1.90625 C 5.359375 1.613281 5.019531 1.40625 4.59375 1.28125 C 4.164062 1.15625 3.671875 1.125 3.109375 1.1875 C 2.554688 1.238281 2.082031 1.367188 1.6875 1.578125 C 1.289062 1.785156 0.992188 2.054688 0.796875 2.390625 C 0.609375 2.734375 0.535156 3.113281 0.578125 3.53125 Z M 0.578125 3.53125 "/></g></g></g><g fill="#000000" fill-opacity="1"><g transform="translate(66.549308, 39.277887)"><g><path d="M -0.09375 1.359375 L -0.03125 0.421875 C -0.03125 0.398438 -0.00390625 0.390625 0.046875 0.390625 C 0.109375 0.398438 0.164062 0.40625 0.21875 0.40625 C 0.28125 0.414062 0.3125 0.429688 0.3125 0.453125 C 0.289062 0.734375 0.296875 0.929688 0.328125 1.046875 C 0.359375 1.171875 0.4375 1.253906 0.5625 1.296875 C 0.695312 1.335938 0.890625 1.367188 1.140625 1.390625 L 6.765625 1.796875 C 6.984375 1.816406 7.175781 1.816406 7.34375 1.796875 C 7.507812 1.785156 7.640625 1.726562 7.734375 1.625 C 7.835938 1.53125 7.890625 1.367188 7.890625 1.140625 C 7.898438 1.117188 7.945312 1.109375 8.03125 1.109375 C 8.125 1.109375 8.171875 1.117188 8.171875 1.140625 C 8.203125 1.390625 8.226562 1.632812 8.25 1.875 C 8.269531 2.125 8.296875 2.378906 8.328125 2.640625 C 8.359375 2.742188 8.332031 2.789062 8.25 2.78125 L 1.078125 2.265625 C 0.828125 2.242188 0.632812 2.242188 0.5 2.265625 C 0.363281 2.285156 0.269531 2.359375 0.21875 2.484375 C 0.175781 2.609375 0.144531 2.800781 0.125 3.0625 C 0.125 3.082031 0.09375 3.09375 0.03125 3.09375 C -0.0195312 3.09375 -0.0703125 3.085938 -0.125 3.078125 C -0.1875 3.066406 -0.21875 3.050781 -0.21875 3.03125 L -0.15625 2.125 Z M -0.09375 1.359375 "/></g></g></g><g fill="#000000" fill-opacity="1"><g transform="translate(66.322315, 42.54991)"><g><path d="M 6.609375 2.96875 C 6.640625 2.800781 6.71875 2.671875 6.84375 2.578125 C 6.976562 2.484375 7.125 2.453125 7.28125 2.484375 C 7.4375 2.515625 7.5625 2.59375 7.65625 2.71875 C 7.75 2.851562 7.78125 3.007812 7.75 3.1875 C 7.71875 3.363281 7.632812 3.5 7.5 3.59375 C 7.375 3.6875 7.222656 3.71875 7.046875 3.6875 C 6.890625 3.65625 6.765625 3.578125 6.671875 3.453125 C 6.585938 3.328125 6.566406 3.164062 6.609375 2.96875 Z M -0.25 1.328125 L -0.078125 0.421875 C -0.078125 0.410156 -0.0507812 0.40625 0 0.40625 C 0.0625 0.414062 0.117188 0.425781 0.171875 0.4375 C 0.234375 0.457031 0.265625 0.472656 0.265625 0.484375 C 0.210938 0.765625 0.191406 0.972656 0.203125 1.109375 C 0.210938 1.242188 0.28125 1.332031 0.40625 1.375 C 0.53125 1.425781 0.71875 1.476562 0.96875 1.53125 L 3.96875 2.09375 C 4.300781 2.15625 4.546875 2.175781 4.703125 2.15625 C 4.859375 2.144531 4.976562 2.09375 5.0625 2 C 5.144531 1.914062 5.234375 1.785156 5.328125 1.609375 C 5.335938 1.597656 5.382812 1.597656 5.46875 1.609375 C 5.5625 1.617188 5.609375 1.632812 5.609375 1.65625 C 5.597656 1.90625 5.59375 2.160156 5.59375 2.421875 C 5.59375 2.679688 5.585938 2.9375 5.578125 3.1875 C 5.578125 3.207031 5.566406 3.226562 5.546875 3.25 C 5.523438 3.28125 5.503906 3.289062 5.484375 3.28125 L 0.8125 2.40625 C 0.5625 2.351562 0.367188 2.328125 0.234375 2.328125 C 0.0976562 2.328125 0.00390625 2.378906 -0.046875 2.484375 C -0.109375 2.597656 -0.171875 2.800781 -0.234375 3.09375 C -0.234375 3.101562 -0.257812 3.101562 -0.3125 3.09375 C -0.375 3.09375 -0.429688 3.082031 -0.484375 3.0625 C -0.546875 3.050781 -0.578125 3.039062 -0.578125 3.03125 L -0.390625 2.109375 Z M -0.25 1.328125 "/></g></g></g><g fill="#000000" fill-opacity="1"><g transform="translate(65.902791, 45.752972)"><g><path d="M -1.375 3.28125 C -1.15625 2.71875 -0.84375 2.265625 -0.4375 1.921875 C -0.03125 1.585938 0.4375 1.378906 0.96875 1.296875 C 1.5 1.222656 2.046875 1.289062 2.609375 1.5 C 3.179688 1.71875 3.632812 2.03125 3.96875 2.4375 C 4.3125 2.84375 4.523438 3.304688 4.609375 3.828125 C 4.703125 4.359375 4.640625 4.90625 4.421875 5.46875 C 4.210938 6.039062 3.898438 6.5 3.484375 6.84375 C 3.066406 7.1875 2.59375 7.398438 2.0625 7.484375 C 1.539062 7.566406 0.992188 7.5 0.421875 7.28125 C -0.140625 7.070312 -0.59375 6.757812 -0.9375 6.34375 C -1.28125 5.9375 -1.488281 5.46875 -1.5625 4.9375 C -1.644531 4.40625 -1.582031 3.851562 -1.375 3.28125 Z M -1.0625 3.40625 C -1.207031 3.800781 -1.226562 4.179688 -1.125 4.546875 C -1.019531 4.921875 -0.800781 5.265625 -0.46875 5.578125 C -0.144531 5.890625 0.273438 6.140625 0.796875 6.328125 C 1.304688 6.523438 1.785156 6.613281 2.234375 6.59375 C 2.691406 6.582031 3.078125 6.472656 3.390625 6.265625 C 3.710938 6.054688 3.945312 5.753906 4.09375 5.359375 C 4.25 4.972656 4.273438 4.59375 4.171875 4.21875 C 4.078125 3.84375 3.863281 3.5 3.53125 3.1875 C 3.195312 2.882812 2.769531 2.632812 2.25 2.4375 C 1.726562 2.238281 1.242188 2.144531 0.796875 2.15625 C 0.347656 2.175781 -0.03125 2.289062 -0.34375 2.5 C -0.664062 2.71875 -0.90625 3.019531 -1.0625 3.40625 Z M -1.0625 3.40625 "/></g></g></g><g fill="#000000" fill-opacity="1"><g transform="translate(63.574921, 52.115407)"><g><path d="M -2.453125 3.328125 C -2.242188 3.023438 -2.050781 2.78125 -1.875 2.59375 C -1.695312 2.40625 -1.546875 2.253906 -1.421875 2.140625 C -1.296875 2.023438 -1.195312 1.910156 -1.125 1.796875 C -1.050781 1.679688 -1.039062 1.570312 -1.09375 1.46875 C -1.144531 1.363281 -1.21875 1.265625 -1.3125 1.171875 C -1.320312 1.148438 -1.304688 1.109375 -1.265625 1.046875 C -1.222656 0.984375 -1.191406 0.957031 -1.171875 0.96875 L 1.734375 2.453125 C 1.785156 2.472656 1.789062 2.519531 1.75 2.59375 C 1.707031 2.675781 1.664062 2.710938 1.625 2.703125 C 0.988281 2.472656 0.441406 2.359375 -0.015625 2.359375 C -0.472656 2.367188 -0.859375 2.46875 -1.171875 2.65625 C -1.492188 2.851562 -1.785156 3.140625 -2.046875 3.515625 C -2.265625 3.835938 -2.425781 4.160156 -2.53125 4.484375 C -2.632812 4.804688 -2.648438 5.101562 -2.578125 5.375 C -2.515625 5.65625 -2.351562 5.882812 -2.09375 6.0625 C -1.863281 6.21875 -1.648438 6.304688 -1.453125 6.328125 C -1.253906 6.359375 -1.035156 6.320312 -0.796875 6.21875 C -0.566406 6.125 -0.296875 5.960938 0.015625 5.734375 C 0.335938 5.503906 0.726562 5.210938 1.1875 4.859375 C 1.613281 4.554688 2.007812 4.3125 2.375 4.125 C 2.738281 3.9375 3.082031 3.84375 3.40625 3.84375 C 3.738281 3.84375 4.082031 3.960938 4.4375 4.203125 C 4.738281 4.410156 4.953125 4.679688 5.078125 5.015625 C 5.210938 5.347656 5.25 5.710938 5.1875 6.109375 C 5.132812 6.515625 4.96875 6.925781 4.6875 7.34375 C 4.4375 7.695312 4.191406 7.976562 3.953125 8.1875 C 3.722656 8.394531 3.5625 8.566406 3.46875 8.703125 C 3.375 8.835938 3.363281 8.957031 3.4375 9.0625 C 3.519531 9.175781 3.59375 9.269531 3.65625 9.34375 C 3.664062 9.363281 3.644531 9.40625 3.59375 9.46875 C 3.550781 9.53125 3.523438 9.554688 3.515625 9.546875 L 0.765625 8.140625 C 0.742188 8.117188 0.75 8.066406 0.78125 7.984375 C 0.8125 7.898438 0.847656 7.867188 0.890625 7.890625 C 1.515625 8.109375 2.035156 8.21875 2.453125 8.21875 C 2.878906 8.21875 3.242188 8.113281 3.546875 7.90625 C 3.847656 7.695312 4.132812 7.398438 4.40625 7.015625 C 4.570312 6.765625 4.671875 6.507812 4.703125 6.25 C 4.742188 5.988281 4.726562 5.75 4.65625 5.53125 C 4.582031 5.3125 4.453125 5.140625 4.265625 5.015625 C 4.109375 4.910156 3.953125 4.828125 3.796875 4.765625 C 3.640625 4.710938 3.46875 4.707031 3.28125 4.75 C 3.09375 4.789062 2.859375 4.890625 2.578125 5.046875 C 2.296875 5.210938 1.957031 5.457031 1.5625 5.78125 C 1.257812 6.03125 0.953125 6.265625 0.640625 6.484375 C 0.335938 6.703125 0.0234375 6.882812 -0.296875 7.03125 C -0.617188 7.1875 -0.9375 7.265625 -1.25 7.265625 C -1.5625 7.265625 -1.863281 7.164062 -2.15625 6.96875 C -2.5 6.726562 -2.75 6.414062 -2.90625 6.03125 C -3.070312 5.644531 -3.117188 5.21875 -3.046875 4.75 C -2.984375 4.289062 -2.785156 3.816406 -2.453125 3.328125 Z M -2.453125 3.328125 "/></g></g></g><g fill="#000000" fill-opacity="1"><g transform="translate(59.344191, 57.998009)"><g><path d="M 3.8125 6.171875 C 3.925781 6.046875 4.0625 5.976562 4.21875 5.96875 C 4.382812 5.96875 4.523438 6.023438 4.640625 6.140625 C 4.753906 6.253906 4.8125 6.390625 4.8125 6.546875 C 4.8125 6.710938 4.75 6.859375 4.625 6.984375 C 4.5 7.109375 4.359375 7.175781 4.203125 7.1875 C 4.046875 7.195312 3.90625 7.140625 3.78125 7.015625 C 3.664062 6.898438 3.601562 6.765625 3.59375 6.609375 C 3.59375 6.453125 3.664062 6.304688 3.8125 6.171875 Z M -0.953125 0.96875 L -0.296875 0.296875 C -0.285156 0.285156 -0.257812 0.300781 -0.21875 0.34375 C -0.175781 0.382812 -0.132812 0.425781 -0.09375 0.46875 C -0.0507812 0.507812 -0.0351562 0.535156 -0.046875 0.546875 C -0.253906 0.753906 -0.390625 0.914062 -0.453125 1.03125 C -0.515625 1.144531 -0.503906 1.257812 -0.421875 1.375 C -0.347656 1.488281 -0.222656 1.632812 -0.046875 1.8125 L 2.125 3.96875 C 2.363281 4.195312 2.546875 4.347656 2.671875 4.421875 C 2.804688 4.503906 2.9375 4.53125 3.0625 4.5 C 3.1875 4.46875 3.332031 4.410156 3.5 4.328125 C 3.519531 4.316406 3.5625 4.34375 3.625 4.40625 C 3.695312 4.46875 3.722656 4.507812 3.703125 4.53125 C 3.566406 4.71875 3.421875 4.914062 3.265625 5.125 C 3.117188 5.34375 2.976562 5.554688 2.84375 5.765625 C 2.820312 5.773438 2.796875 5.785156 2.765625 5.796875 C 2.742188 5.804688 2.722656 5.804688 2.703125 5.796875 L -0.671875 2.4375 C -0.847656 2.257812 -0.992188 2.132812 -1.109375 2.0625 C -1.222656 1.988281 -1.332031 1.976562 -1.4375 2.03125 C -1.550781 2.09375 -1.710938 2.226562 -1.921875 2.4375 C -1.929688 2.4375 -1.957031 2.414062 -2 2.375 C -2.039062 2.34375 -2.082031 2.300781 -2.125 2.25 C -2.164062 2.207031 -2.179688 2.1875 -2.171875 2.1875 L -1.515625 1.515625 Z M -0.953125 0.96875 "/></g></g></g><g fill="#000000" fill-opacity="1"><g transform="translate(57.066639, 60.351943)"><g><path d="M -2.046875 1.421875 C -1.734375 1.191406 -1.414062 1.097656 -1.09375 1.140625 C -0.769531 1.191406 -0.4375 1.441406 -0.09375 1.890625 L 2.46875 5.1875 L 3.171875 4.640625 L 3.328125 4.90625 C 3.054688 5.3125 2.921875 5.71875 2.921875 6.125 C 2.929688 6.53125 3.0625 6.976562 3.3125 7.46875 C 3.320312 7.5 3.304688 7.523438 3.265625 7.546875 C 3.222656 7.566406 3.195312 7.570312 3.1875 7.5625 L 1.984375 6 L 0.75 6.96875 L 0.640625 6.609375 L 1.765625 5.734375 L -0.75 2.484375 C -0.988281 2.171875 -1.210938 1.988281 -1.421875 1.9375 C -1.640625 1.894531 -1.832031 1.941406 -2 2.078125 C -2.132812 2.179688 -2.226562 2.320312 -2.28125 2.5 C -2.332031 2.675781 -2.347656 2.914062 -2.328125 3.21875 C -2.328125 3.25 -2.351562 3.265625 -2.40625 3.265625 C -2.46875 3.265625 -2.503906 3.253906 -2.515625 3.234375 C -2.554688 2.804688 -2.546875 2.441406 -2.484375 2.140625 C -2.421875 1.847656 -2.273438 1.609375 -2.046875 1.421875 Z M -2.046875 1.421875 "/></g></g></g><g fill="#000000" fill-opacity="1"><g transform="translate(53.909733, 62.942061)"><g><path d="M -4.328125 4.546875 C -4.328125 4.578125 -4.363281 4.585938 -4.4375 4.578125 C -4.507812 4.566406 -4.546875 4.546875 -4.546875 4.515625 C -4.546875 4.171875 -4.503906 3.800781 -4.421875 3.40625 C -4.347656 3.019531 -4.203125 2.65625 -3.984375 2.3125 C -3.773438 1.976562 -3.457031 1.703125 -3.03125 1.484375 C -2.53125 1.210938 -2.03125 1.09375 -1.53125 1.125 C -1.03125 1.164062 -0.5625 1.328125 -0.125 1.609375 C 0.3125 1.890625 0.664062 2.285156 0.9375 2.796875 C 1.21875 3.335938 1.351562 3.878906 1.34375 4.421875 C 1.332031 4.972656 1.1875 5.472656 0.90625 5.921875 C 0.625 6.378906 0.207031 6.753906 -0.34375 7.046875 C -0.75 7.253906 -1.15625 7.347656 -1.5625 7.328125 C -1.96875 7.304688 -2.332031 7.1875 -2.65625 6.96875 C -2.988281 6.757812 -3.242188 6.488281 -3.421875 6.15625 C -3.460938 6.070312 -3.503906 5.972656 -3.546875 5.859375 C -3.585938 5.753906 -3.617188 5.664062 -3.640625 5.59375 L 0.234375 3.546875 L 0.140625 3.375 C 0.00390625 3.125 -0.164062 2.882812 -0.375 2.65625 C -0.59375 2.4375 -0.84375 2.257812 -1.125 2.125 C -1.414062 2 -1.722656 1.929688 -2.046875 1.921875 C -2.378906 1.921875 -2.722656 2.007812 -3.078125 2.1875 C -3.429688 2.375 -3.691406 2.609375 -3.859375 2.890625 C -4.023438 3.171875 -4.132812 3.457031 -4.1875 3.75 C -4.25 4.039062 -4.296875 4.304688 -4.328125 4.546875 Z M -0.453125 6.71875 C 0.015625 6.46875 0.328125 6.09375 0.484375 5.59375 C 0.640625 5.09375 0.601562 4.523438 0.375 3.890625 L -2.171875 5.234375 C -2.359375 5.328125 -2.472656 5.429688 -2.515625 5.546875 C -2.566406 5.671875 -2.546875 5.820312 -2.453125 6 C -2.316406 6.25 -2.144531 6.453125 -1.9375 6.609375 C -1.738281 6.773438 -1.507812 6.867188 -1.25 6.890625 C -1 6.921875 -0.734375 6.863281 -0.453125 6.71875 Z M -0.453125 6.71875 "/></g></g></g><g fill="#000000" fill-opacity="1"><g transform="translate(48.785563, 66.102617)"><g><path d="M -3.53125 5.0625 C -3.65625 4.40625 -4.28125 4 -4.921875 4.125 C -5.578125 4.25 -6 4.875 -5.875 5.53125 C -5.75 6.1875 -5.109375 6.578125 -4.453125 6.453125 C -3.8125 6.328125 -3.40625 5.71875 -3.53125 5.0625 Z M -3.53125 5.0625 "/></g></g></g></svg>