<svg xmlns="http://www.w3.org/2000/svg" xmlns:xlink="http://www.w3.org/1999/xlink" width="500" zoomAndPan="magnify" viewBox="0 0 375 374.999991" height="500" preserveAspectRatio="xMidYMid meet" version="1.0"><metadata><ContainsAiGeneratedContent>Yes</ContainsAiGeneratedContent></metadata><defs><g/><clipPath id="2e9f0c8702"><path d="M 6.363281 6.363281 L 368.613281 6.363281 L 368.613281 368.613281 L 6.363281 368.613281 Z M 6.363281 6.363281 " clip-rule="nonzero"/></clipPath></defs><g clip-path="url(#2e9f0c8702)"><path fill="#000000" d="M 368.636719 187.5 C 368.636719 190.464844 368.5625 193.425781 368.417969 196.386719 C 368.273438 199.347656 368.054688 202.304688 367.761719 205.253906 C 367.472656 208.203125 367.109375 211.144531 366.675781 214.078125 C 366.238281 217.007812 365.734375 219.929688 365.15625 222.835938 C 364.578125 225.746094 363.925781 228.636719 363.207031 231.511719 C 362.488281 234.386719 361.695312 237.242188 360.835938 240.082031 C 359.976562 242.917969 359.046875 245.730469 358.046875 248.523438 C 357.046875 251.3125 355.980469 254.078125 354.847656 256.816406 C 353.714844 259.554688 352.511719 262.265625 351.246094 264.945312 C 349.976562 267.625 348.644531 270.273438 347.246094 272.886719 C 345.851562 275.5 344.390625 278.078125 342.863281 280.621094 C 341.339844 283.164062 339.753906 285.667969 338.109375 288.132812 C 336.460938 290.597656 334.753906 293.019531 332.988281 295.402344 C 331.222656 297.78125 329.398438 300.121094 327.519531 302.410156 C 325.640625 304.703125 323.703125 306.945312 321.710938 309.144531 C 319.722656 311.339844 317.679688 313.484375 315.582031 315.582031 C 313.484375 317.679688 311.339844 319.722656 309.144531 321.710938 C 306.945312 323.703125 304.703125 325.640625 302.410156 327.519531 C 300.121094 329.398438 297.78125 331.222656 295.402344 332.988281 C 293.019531 334.753906 290.597656 336.460938 288.132812 338.109375 C 285.667969 339.753906 283.164062 341.339844 280.621094 342.863281 C 278.078125 344.390625 275.5 345.851562 272.886719 347.246094 C 270.273438 348.644531 267.625 349.976562 264.945312 351.246094 C 262.265625 352.511719 259.554688 353.714844 256.816406 354.847656 C 254.078125 355.980469 251.3125 357.046875 248.523438 358.046875 C 245.730469 359.046875 242.917969 359.976562 240.082031 360.835938 C 237.242188 361.695312 234.386719 362.488281 231.511719 363.207031 C 228.636719 363.925781 225.746094 364.578125 222.835938 365.15625 C 219.929688 365.734375 217.007812 366.238281 214.078125 366.675781 C 211.144531 367.109375 208.203125 367.472656 205.253906 367.761719 C 202.304688 368.054688 199.347656 368.273438 196.386719 368.417969 C 193.425781 368.5625 190.464844 368.636719 187.5 368.636719 C 184.535156 368.636719 181.570312 368.5625 178.609375 368.417969 C 175.648438 368.273438 172.695312 368.054688 169.746094 367.761719 C 166.792969 367.472656 163.851562 367.109375 160.921875 366.675781 C 157.988281 366.238281 155.070312 365.734375 152.160156 365.15625 C 149.253906 364.578125 146.363281 363.925781 143.488281 363.207031 C 140.609375 362.488281 137.753906 361.695312 134.917969 360.835938 C 132.082031 359.976562 129.265625 359.046875 126.476562 358.046875 C 123.683594 357.046875 120.917969 355.980469 118.179688 354.847656 C 115.441406 353.714844 112.734375 352.511719 110.054688 351.246094 C 107.375 349.976562 104.726562 348.644531 102.113281 347.246094 C 99.496094 345.851562 96.917969 344.390625 94.375 342.863281 C 91.832031 341.339844 89.328125 339.753906 86.863281 338.109375 C 84.398438 336.460938 81.976562 334.753906 79.597656 332.988281 C 77.214844 331.222656 74.878906 329.398438 72.585938 327.519531 C 70.296875 325.640625 68.050781 323.703125 65.855469 321.710938 C 63.660156 319.722656 61.511719 317.679688 59.417969 315.582031 C 57.320312 313.484375 55.277344 311.339844 53.285156 309.144531 C 51.292969 306.945312 49.359375 304.703125 47.476562 302.410156 C 45.597656 300.121094 43.773438 297.78125 42.007812 295.402344 C 40.242188 293.019531 38.535156 290.597656 36.890625 288.132812 C 35.242188 285.667969 33.65625 283.164062 32.132812 280.621094 C 30.609375 278.078125 29.148438 275.5 27.75 272.886719 C 26.351562 270.273438 25.019531 267.625 23.753906 264.945312 C 22.484375 262.265625 21.285156 259.554688 20.152344 256.816406 C 19.015625 254.078125 17.949219 251.3125 16.949219 248.523438 C 15.953125 245.730469 15.023438 242.917969 14.160156 240.082031 C 13.300781 237.242188 12.511719 234.386719 11.789062 231.511719 C 11.070312 228.636719 10.421875 225.746094 9.84375 222.835938 C 9.265625 219.929688 8.757812 217.007812 8.324219 214.078125 C 7.886719 211.144531 7.523438 208.203125 7.234375 205.253906 C 6.945312 202.304688 6.726562 199.347656 6.582031 196.386719 C 6.433594 193.425781 6.363281 190.464844 6.363281 187.5 C 6.363281 184.535156 6.433594 181.570312 6.582031 178.609375 C 6.726562 175.648438 6.945312 172.695312 7.234375 169.746094 C 7.523438 166.792969 7.886719 163.851562 8.324219 160.921875 C 8.757812 157.988281 9.265625 155.070312 9.84375 152.160156 C 10.421875 149.253906 11.070312 146.363281 11.789062 143.488281 C 12.511719 140.609375 13.300781 137.753906 14.160156 134.917969 C 15.023438 132.082031 15.953125 129.265625 16.949219 126.476562 C 17.949219 123.683594 19.015625 120.917969 20.152344 118.179688 C 21.285156 115.441406 22.484375 112.734375 23.753906 110.054688 C 25.019531 107.375 26.351562 104.726562 27.75 102.113281 C 29.148438 99.496094 30.609375 96.917969 32.132812 94.375 C 33.65625 91.832031 35.242188 89.328125 36.890625 86.863281 C 38.535156 84.398438 40.242188 81.976562 42.007812 79.597656 C 43.773438 77.214844 45.597656 74.878906 47.476562 72.585938 C 49.359375 70.296875 51.292969 68.050781 53.285156 65.855469 C 55.277344 63.660156 57.320312 61.511719 59.417969 59.417969 C 61.511719 57.320312 63.660156 55.277344 65.855469 53.285156 C 68.050781 51.292969 70.296875 49.359375 72.585938 47.476562 C 74.878906 45.597656 77.214844 43.773438 79.597656 42.007812 C 81.976562 40.242188 84.398438 38.535156 86.863281 36.890625 C 89.328125 35.242188 91.832031 33.65625 94.375 32.132812 C 96.917969 30.609375 99.496094 29.148438 102.113281 27.75 C 104.726562 26.351562 107.375 25.019531 110.054688 23.753906 C 112.734375 22.484375 115.441406 21.285156 118.179688 20.152344 C 120.917969 19.015625 123.683594 17.949219 126.476562 16.949219 C 129.265625 15.953125 132.082031 15.023438 134.917969 14.160156 C 137.753906 13.300781 140.609375 12.511719 143.488281 11.789062 C 146.363281 11.070312 149.253906 10.421875 152.160156 9.84375 C 155.070312 9.265625 157.988281 8.757812 160.921875 8.324219 C 163.851562 7.886719 166.792969 7.523438 169.746094 7.234375 C 172.695312 6.945312 175.648438 6.726562 178.609375 6.582031 C 181.570312 6.433594 184.535156 6.363281 187.5 6.363281 C 190.464844 6.363281 193.425781 6.433594 196.386719 6.582031 C 199.347656 6.726562 202.304688 6.945312 205.253906 7.234375 C 208.203125 7.523438 211.144531 7.886719 214.078125 8.324219 C 217.007812 8.757812 219.929688 9.265625 222.835938 9.84375 C 225.746094 10.421875 228.636719 11.070312 231.511719 11.789062 C 234.386719 12.511719 237.242188 13.300781 240.082031 14.160156 C 242.917969 15.023438 245.730469 15.953125 248.523438 16.949219 C 251.3125 17.949219 254.078125 19.015625 256.816406 20.152344 C 259.554688 21.285156 262.265625 22.484375 264.945312 23.753906 C 267.625 25.019531 270.273438 26.351562 272.886719 27.75 C 275.5 29.148438 278.078125 30.609375 280.621094 32.132812 C 283.164062 33.65625 285.667969 35.242188 288.132812 36.890625 C 290.597656 38.535156 293.019531 40.242188 295.402344 42.007812 C 297.78125 43.773438 300.121094 45.597656 302.410156 47.476562 C 304.703125 49.359375 306.945312 51.292969 309.144531 53.285156 C 311.339844 55.277344 313.484375 57.320312 315.582031 59.417969 C 317.679688 61.511719 319.722656 63.660156 321.710938 65.855469 C 323.703125 68.050781 325.640625 70.296875 327.519531 72.585938 C 329.398438 74.878906 331.222656 77.214844 332.988281 79.597656 C 334.753906 81.976562 336.460938 84.398438 338.109375 86.863281 C 339.753906 89.328125 341.339844 91.832031 342.863281 94.375 C 344.390625 96.917969 345.851562 99.496094 347.246094 102.113281 C 348.644531 104.726562 349.976562 107.375 351.246094 110.054688 C 352.511719 112.734375 353.714844 115.441406 354.847656 118.179688 C 355.980469 120.917969 357.046875 123.683594 358.046875 126.476562 C 359.046875 129.265625 359.976562 132.082031 360.835938 134.917969 C 361.695312 137.753906 362.488281 140.609375 363.207031 143.488281 C 363.925781 146.363281 364.578125 149.253906 365.15625 152.160156 C 365.734375 155.070312 366.242188 157.988281 366.675781 160.921875 C 367.109375 163.851562 367.472656 166.792969 367.761719 169.746094 C 368.054688 172.695312 368.273438 175.648438 368.417969 178.609375 C 368.5625 181.570312 368.636719 184.535156 368.636719 187.5 Z M 368.636719 187.5 " fill-opacity="1" fill-rule="nonzero"/></g><g fill="#ffffff" fill-opacity="1"><g transform="translate(55.389438, 299.886421)"><g><path d="M 6.25 -208.375 L 39.796875 -208.375 L 119.8125 -40.421875 L 182.328125 -208.375 L 219 -208.375 L 219 -206.296875 C 213.03125 -206.296875 208.691406 -204.488281 205.984375 -200.875 C 203.273438 -197.257812 201.570312 -191.390625 200.875 -183.265625 C 200.175781 -175.140625 199.828125 -164.203125 199.828125 -150.453125 L 199.828125 -57.921875 C 199.828125 -44.304688 200.175781 -33.398438 200.875 -25.203125 C 201.570312 -17.015625 203.273438 -11.113281 205.984375 -7.5 C 208.691406 -3.882812 213.03125 -2.078125 219 -2.078125 L 219 0 L 162.734375 0 L 162.734375 -2.078125 C 168.710938 -2.078125 173.054688 -3.882812 175.765625 -7.5 C 178.472656 -11.113281 180.171875 -17.015625 180.859375 -25.203125 C 181.554688 -33.398438 181.90625 -44.304688 181.90625 -57.921875 L 181.90625 -201.5 C 174.40625 -181.5 166.972656 -161.5625 159.609375 -141.6875 C 152.253906 -121.820312 144.753906 -101.503906 137.109375 -80.734375 C 129.472656 -59.972656 121.347656 -38.132812 112.734375 -15.21875 L 110.859375 -15.21875 C 104.328125 -29.238281 98.25 -42.257812 92.625 -54.28125 C 87 -66.300781 81.648438 -77.796875 76.578125 -88.765625 C 71.503906 -99.742188 66.394531 -110.679688 61.25 -121.578125 C 56.113281 -132.484375 50.835938 -143.804688 45.421875 -155.546875 C 40.003906 -167.285156 34.101562 -179.960938 27.71875 -193.578125 L 27.5 -104.1875 L 27.5 -77.71875 C 27.5 -62.582031 28.472656 -50.082031 30.421875 -40.21875 C 32.367188 -30.351562 35.007812 -22.640625 38.34375 -17.078125 C 41.675781 -11.523438 45.425781 -7.632812 49.59375 -5.40625 C 53.757812 -3.1875 58.066406 -2.078125 62.515625 -2.078125 L 62.515625 0 L 6.25 0 L 6.25 -2.078125 C 12.226562 -2.078125 16.570312 -3.882812 19.28125 -7.5 C 21.988281 -11.113281 23.6875 -17.015625 24.375 -25.203125 C 25.070312 -33.398438 25.421875 -44.304688 25.421875 -57.921875 L 25.421875 -150.453125 C 25.421875 -164.203125 25.070312 -175.140625 24.375 -183.265625 C 23.6875 -191.390625 21.988281 -197.257812 19.28125 -200.875 C 16.570312 -204.488281 12.226562 -206.296875 6.25 -206.296875 Z M 6.25 -208.375 "/></g></g></g><g fill="#ffffff" fill-opacity="1"><g transform="translate(157.784862, 299.886421)"><g><path d="M 0 -206.296875 L 0 -208.375 L 57.921875 -208.375 L 57.921875 -206.296875 L 53.34375 -206.296875 C 50.425781 -206.296875 47.820312 -205.492188 45.53125 -203.890625 C 43.238281 -202.296875 42.09375 -199.414062 42.09375 -195.25 C 42.09375 -192.882812 43.03125 -189.304688 44.90625 -184.515625 C 46.78125 -179.722656 49.3125 -174.203125 52.5 -167.953125 C 55.695312 -161.703125 59.207031 -155.066406 63.03125 -148.046875 C 66.851562 -141.035156 70.671875 -134.085938 74.484375 -127.203125 C 78.304688 -120.328125 81.921875 -113.867188 85.328125 -107.828125 C 88.734375 -101.785156 91.476562 -96.679688 93.5625 -92.515625 C 96.476562 -97.929688 100.019531 -104.53125 104.1875 -112.3125 C 108.351562 -120.09375 112.660156 -128.289062 117.109375 -136.90625 C 121.554688 -145.519531 125.757812 -153.851562 129.71875 -161.90625 C 133.675781 -169.96875 136.867188 -177.085938 139.296875 -183.265625 C 141.722656 -189.441406 142.9375 -193.921875 142.9375 -196.703125 C 142.9375 -200.453125 141.722656 -202.988281 139.296875 -204.3125 C 136.867188 -205.632812 134.195312 -206.296875 131.28125 -206.296875 L 125.859375 -206.296875 L 125.859375 -208.375 L 170.453125 -208.375 L 170.453125 -206.296875 C 165.171875 -206.296875 160.757812 -204.488281 157.21875 -200.875 C 153.675781 -197.257812 149.957031 -191.628906 146.0625 -183.984375 C 142.175781 -176.347656 137.039062 -166.488281 130.65625 -154.40625 C 126.34375 -146.34375 121.820312 -138.070312 117.09375 -129.59375 C 112.375 -121.125 107.96875 -113.242188 103.875 -105.953125 C 99.78125 -98.660156 96.550781 -92.722656 94.1875 -88.140625 L 94.1875 -57.921875 C 94.1875 -44.304688 94.53125 -33.398438 95.21875 -25.203125 C 95.914062 -17.015625 97.617188 -11.113281 100.328125 -7.5 C 103.035156 -3.882812 107.378906 -2.078125 113.359375 -2.078125 L 113.359375 0 L 57.09375 0 L 57.09375 -2.078125 C 63.070312 -2.078125 67.414062 -3.882812 70.125 -7.5 C 72.832031 -11.113281 74.53125 -17.015625 75.21875 -25.203125 C 75.914062 -33.398438 76.265625 -44.304688 76.265625 -57.921875 L 76.265625 -88.140625 C 73.898438 -92.722656 70.664062 -98.660156 66.5625 -105.953125 C 62.46875 -113.242188 58.0625 -121.125 53.34375 -129.59375 C 48.625 -138.070312 44.109375 -146.34375 39.796875 -154.40625 C 33.546875 -166.488281 28.441406 -176.347656 24.484375 -183.984375 C 20.523438 -191.628906 16.773438 -197.257812 13.234375 -200.875 C 9.691406 -204.488281 5.28125 -206.296875 0 -206.296875 Z M 0 -206.296875 "/></g></g></g></svg>